<svg width="168" height="188" viewBox="0 0 168 188" fill="none" xmlns="http://www.w3.org/2000/svg">
<path d="M118.726 146.346C118.726 146.346 104.328 156.7 94.9698 151.154C85.6124 145.628 57.6586 98.0734 58.7028 65.4832C59.7469 32.893 61.9336 1.45477 80.9117 4.51136C98.1039 7.29154 137.386 52.481 137.33 82.4752C137.252 112.471 126.905 137.536 118.726 146.346Z" fill="url(#paint0_radial_1_91)"/>
<path d="M117.88 157.209C117.88 157.209 103.785 164.633 92.6961 159.844C81.629 155.035 46.9825 127.754 30.1275 93.36C7.92624 48.0025 24.6214 9.99926 40.7384 17.1995C56.8554 24.3998 101.445 60.8545 109.552 94.2477C117.659 127.641 123.826 146.23 117.88 157.209Z" fill="url(#paint1_linear_1_91)"/>
<path d="M101.745 175.972C92.5387 173.705 76.6499 167.333 67.8525 160.662C59.054 153.971 43.5753 117.782 42.9956 79.7619C42.0147 14.8235 78.0386 12.3144 87.5297 27.2437C113.288 67.7161 130.017 58.3524 141.479 100.742C151.676 138.386 142.859 186.084 101.745 175.972Z" fill="url(#paint2_radial_1_91)"/>
<path opacity="0.2" d="M99.4294 170.089C97.1722 158.393 93.3188 146.958 89.3811 135.665C85.3745 124.375 81.101 113.256 77.4468 102.104C73.7707 90.9728 70.7367 79.8073 68.982 68.4757C67.1356 57.149 66.6861 45.7086 66.8174 33.9438C62.1355 44.9146 60.1913 56.7566 60.3884 68.6408C60.5876 80.564 63.0418 92.5039 66.8764 104.018C70.689 115.553 75.7704 126.726 81.3002 137.681C86.8988 148.631 92.832 159.387 99.4294 170.089Z" fill="#C497EB"/>
<path d="M91.8968 51.328C89.8842 19.2139 107.731 8.40151 118.825 19.313C145.919 46.0195 160.737 78.4481 163.671 113.174C166.171 142.777 141.876 181.46 109.11 179.941C97.5119 179.406 98.4521 156.075 91.8968 51.328Z" fill="url(#paint3_radial_1_91)"/>
<path opacity="0.2" d="M118.55 34.861C122.934 45.8958 127.26 56.6989 130.627 67.651C134.063 78.5799 136.674 89.5919 138.025 100.691C139.376 111.77 139.534 122.932 137.897 134.054C136.329 145.191 132.868 156.194 127.541 167.141C136.843 157.841 142.889 146.582 146.251 135.017C149.588 123.413 150.214 111.426 148.739 99.7277C147.285 88.0084 143.776 76.5552 138.686 65.6559C133.596 54.7566 126.991 44.3294 118.55 34.861Z" fill="#C497EB"/>
<path d="M44.1512 41.9421C42.7904 19.4577 22.2301 25.5435 18.0381 38.3663C11.2599 59.1916 -7.5779 87.6448 18.8936 132.422C51.4069 187.403 91.7668 185.112 107.031 180.639C139.35 171.207 50.2866 143.992 44.1512 41.9421Z" fill="url(#paint4_radial_1_91)"/>
<path opacity="0.2" d="M21.3155 43.7471C21.5606 55.2375 22.1414 66.5535 23.2091 77.9413C24.3445 89.3059 26.1753 100.77 29.9046 112.036C33.6089 123.263 39.3461 134.226 47.3426 143.992C55.3161 153.759 65.2998 162.402 76.8047 169.379C68.5058 159.981 60.7397 150.653 54.552 140.731C48.2976 130.853 43.6289 120.518 40.0685 109.83C36.508 99.143 34.011 88.1249 31.3701 76.9971C28.6615 65.8925 25.8987 54.6343 21.3155 43.7471Z" fill="#C497EB"/>
<defs>
<radialGradient id="paint0_radial_1_91" cx="0" cy="0" r="1" gradientUnits="userSpaceOnUse" gradientTransform="translate(86.5127 -28.0987) rotate(178.525) scale(55.8407 74.2768)">
<stop stop-color="#DAC8EB"/>
<stop offset="0.3135" stop-color="#CCAFEB"/>
<stop offset="0.7514" stop-color="#BC91EB"/>
<stop offset="1" stop-color="#B686EB"/>
</radialGradient>
<linearGradient id="paint1_linear_1_91" x1="106.542" y1="82.5974" x2="30.099" y2="102.404" gradientUnits="userSpaceOnUse">
<stop stop-color="#DAC8EB"/>
<stop offset="0.3135" stop-color="#CCAFEB"/>
<stop offset="0.7514" stop-color="#BC91EB"/>
<stop offset="1" stop-color="#B686EB"/>
</linearGradient>
<radialGradient id="paint2_radial_1_91" cx="0" cy="0" r="1" gradientUnits="userSpaceOnUse" gradientTransform="translate(72.0766 48.4543) rotate(179.369) scale(50.4452 81.1751)">
<stop stop-color="#DAC8EB"/>
<stop offset="0.4448" stop-color="#CBADEB"/>
<stop offset="1" stop-color="#B686EB"/>
</radialGradient>
<radialGradient id="paint3_radial_1_91" cx="0" cy="0" r="1" gradientUnits="userSpaceOnUse" gradientTransform="translate(99.8965 68.0643) rotate(162.78) scale(70.5782 123.94)">
<stop stop-color="#DAC8EB"/>
<stop offset="0.2909" stop-color="#D2B9EB"/>
<stop offset="0.8485" stop-color="#BC92EB"/>
<stop offset="1" stop-color="#B686EB"/>
</radialGradient>
<radialGradient id="paint4_radial_1_91" cx="0" cy="0" r="1" gradientUnits="userSpaceOnUse" gradientTransform="translate(61.7454 71.8866) rotate(-175.928) scale(76.6324 179.067)">
<stop stop-color="#DAC8EB"/>
<stop offset="0.3733" stop-color="#CEB2EB"/>
<stop offset="1" stop-color="#B686EB"/>
</radialGradient>
</defs>
</svg>
