<svg width="988" height="818" viewBox="0 0 988 818" fill="none" xmlns="http://www.w3.org/2000/svg">
<g clip-path="url(#clip0_1_627)" filter="url(#filter0_d_1_627)">
<rect width="980" height="810" transform="translate(4)" fill="#3A1F36"/>
<g opacity="0.3">
<path d="M70.0067 217.757C49.3877 199.357 12.4792 187.092 -29.6214 187.092C-71.7221 187.092 -108.631 199.352 -129.25 217.757H-146.655C-146.655 236.726 -144.78 243.177 -144.47 251.648C-143.168 287.275 -94.2577 316.204 -29.6214 316.204C35.0149 316.204 84.8754 287.275 86.3168 251.648C86.663 243.156 87.407 238.173 87.407 217.675L70.0067 217.757Z" fill="#C6640C"/>
<path d="M17.175 258.703C15.8111 283.027 17.175 310.73 17.175 310.73C41.7358 304.652 61.554 293.907 73.5812 280.499C87.4064 261.381 85.2366 241.507 85.2366 222.797C85.2366 222.802 18.4459 235.951 17.175 258.703Z" fill="#A3490A"/>
<path d="M87.4123 217.675C87.4123 253.328 35.0151 285.59 -29.6212 285.59C-94.2576 285.59 -146.655 253.411 -146.655 217.757C-146.655 182.104 -94.2576 153.202 -29.6212 153.202C35.0151 153.202 87.4123 182.022 87.4123 217.675Z" fill="url(#paint0_radial_1_627)"/>
<path opacity="0.7" d="M22.9873 193.279L71.7422 250.883C74.6457 247.921 76.6192 245.585 79.2127 241.998L1.11287 155.455C-4.23948 154.654 -9.74678 154.054 -15.3781 153.677L22.9873 193.279Z" fill="#FCFFAC"/>
<path d="M-27.4364 268.301C20.7559 268.301 59.8234 246.753 59.8234 220.171C59.8234 193.59 20.7559 172.041 -27.4364 172.041C-75.6286 172.041 -114.696 193.59 -114.696 220.171C-114.696 246.753 -75.6286 268.301 -27.4364 268.301Z" fill="#FCFFAC"/>
<path d="M-29.621 266.156C18.8366 266.156 58.1193 244.487 58.1193 217.758C58.1193 191.028 18.8366 169.359 -29.621 169.359C-78.0787 169.359 -117.361 191.028 -117.361 217.758C-117.361 244.487 -78.0787 266.156 -29.621 266.156Z" fill="#FBAA12"/>
<path opacity="0.3" d="M42.191 189.945C48.184 196.494 51.5628 203.895 51.5628 211.731C51.5628 238.458 12.2778 260.13 -36.1775 260.13C-65.8685 260.13 -92.1136 251.994 -107.99 239.548C-93.5396 255.333 -63.8692 266.161 -29.6214 266.161C18.8339 266.161 58.1189 244.495 58.1189 217.763C58.1189 207.405 52.2292 197.812 42.191 189.945Z" fill="#EA831C"/>
<path opacity="0.25" d="M-143.039 201.781C-132.07 221.629 -98.613 236.07 -59.0387 236.07C-10.5473 236.07 28.7635 214.388 28.7635 187.64C28.7635 175.881 21.1638 165.1 8.52693 156.711C-3.42802 154.437 -16.2613 153.202 -29.6215 153.202C-84.2557 153.202 -130.149 173.855 -143.039 201.781Z" fill="#FFFFEB"/>
<path d="M-19.588 218.362C-4.16646 219.019 35.1805 222.218 9.14725 237.631C-18.1311 253.777 -26.1286 239.197 -29.0735 227.082C-32.0183 239.197 -40.0158 253.777 -67.2942 237.631C-93.3275 222.218 -53.9805 219.019 -38.5589 218.362C-53.9805 217.706 -93.3275 214.506 -67.2942 199.094C-40.0158 182.947 -33.1136 198.985 -30.1687 211.1C-27.2239 198.985 -18.1363 182.942 9.14208 199.094C35.1805 214.501 -4.16646 217.706 -19.588 218.362Z" fill="#C6640C"/>
<path d="M-20.6835 217.158C-5.26189 217.815 34.0851 221.014 8.05182 236.427C-19.2266 252.573 -27.2241 237.993 -30.1689 225.878C-33.1137 237.993 -41.1113 252.573 -68.3896 236.427C-94.4229 221.014 -55.0759 217.815 -39.6543 217.158C-55.0759 216.502 -94.4229 213.302 -68.3896 197.89C-41.1113 181.743 -33.1137 196.323 -30.1689 208.439C-27.2241 196.323 -19.2266 181.743 8.05182 197.89C34.0851 213.297 -5.25672 216.497 -20.6835 217.158Z" fill="#FCE13C"/>
<path d="M-29.0732 209.638C-26.1284 197.523 -18.1308 182.942 9.14753 199.089C11.9167 200.727 13.9367 202.226 15.3368 203.601C13.9987 201.911 11.6584 200.014 8.05743 197.884C-18.1515 182.368 -26.5572 195.217 -29.7913 206.997C-29.5227 207.881 -29.285 208.77 -29.0732 209.638Z" fill="#FCFFAC"/>
<path d="M-10.6551 217.804C-14.0029 218.084 10.1291 220.26 16.0859 225.356C13.0946 220.849 0.173541 218.766 -10.6551 217.804Z" fill="#FCFFAC"/>
<path opacity="0.25" d="M5.81487 220.285C-2.61147 218.213 -13.9361 217.443 -20.6834 217.153C-5.26183 216.497 34.0852 213.297 8.05188 197.885C-19.2265 181.738 -27.224 196.319 -30.1688 208.434C-33.1137 196.319 -41.1112 181.738 -68.3896 197.885C-94.4229 213.297 -55.0758 216.497 -39.6543 217.153C-54.8434 217.799 -93.2294 220.916 -69.5313 235.729C-66.0905 235.956 -62.5929 236.07 -59.0436 236.07C-49.9818 236.07 -41.2403 235.31 -33.0155 233.905C-31.7187 231.346 -30.8198 228.55 -30.1688 225.873C-29.6005 228.209 -28.8463 230.633 -27.8027 232.912C-14.8454 230.194 -3.36059 225.831 5.81487 220.285Z" fill="#FFFFEB"/>
<path d="M-115.176 219.567C-115.176 192.84 -75.891 171.168 -27.4357 171.168C2.33806 171.168 28.6503 179.35 44.511 191.858C28.95 178.337 1.56311 169.359 -29.621 169.359C-78.0763 169.359 -117.361 191.026 -117.361 217.758C-117.361 228.064 -111.523 237.615 -101.568 245.466C-110.185 237.977 -115.176 229.092 -115.176 219.567Z" fill="#CF7310"/>
<path d="M84.5352 232.142C78.5732 208.888 42.9511 190.1 -0.704597 188.658C-49.134 187.061 -112.644 201.337 -113.522 228.048C-114.349 253.1 -56.9715 280.928 -12.8249 284.856C35.2946 280.623 73.9493 258.589 84.5352 232.142Z" fill="#342D3F"/>
<path d="M80.9442 173.524C60.3252 155.124 23.4168 142.859 -18.6839 142.859C-60.7846 142.859 -97.693 155.119 -118.312 173.524H-135.717C-135.717 192.493 -133.842 198.944 -133.532 207.415C-132.23 243.042 -83.3202 271.971 -18.6839 271.971C45.9524 271.971 95.813 243.042 97.2544 207.415C97.6005 198.923 98.3497 193.94 98.3497 173.442L80.9442 173.524Z" fill="#C6640C"/>
<path d="M28.1182 214.47C26.7595 238.794 28.1182 266.498 28.1182 266.498C52.6791 260.419 72.4973 249.674 84.5246 236.266C98.3549 217.148 96.1798 197.28 96.1798 178.564C96.1798 178.564 29.3892 191.713 28.1182 214.47Z" fill="#A3490A"/>
<path d="M98.3497 173.442C98.3497 209.095 45.9524 241.357 -18.6839 241.357C-83.3202 241.357 -135.717 209.178 -135.717 173.525C-135.717 137.872 -83.3202 108.969 -18.6839 108.969C45.9524 108.969 98.3497 137.789 98.3497 173.442Z" fill="url(#paint1_radial_1_627)"/>
<path opacity="0.7" d="M33.9245 149.046L82.6795 206.65C85.583 203.688 87.5565 201.352 90.1501 197.765L12.0502 111.222C6.69784 110.421 1.19047 109.822 -4.44086 109.444L33.9245 149.046Z" fill="#FCFFAC"/>
<path d="M-16.4931 224.063C31.6992 224.063 70.7667 202.515 70.7667 175.933C70.7667 149.352 31.6992 127.803 -16.4931 127.803C-64.6853 127.803 -103.753 149.352 -103.753 175.933C-103.753 202.515 -64.6853 224.063 -16.4931 224.063Z" fill="#FCFFAC"/>
<path d="M-18.6788 221.923C29.7788 221.923 69.0615 200.255 69.0615 173.525C69.0615 146.795 29.7788 125.126 -18.6788 125.126C-67.1364 125.126 -106.419 146.795 -106.419 173.525C-106.419 200.255 -67.1364 221.923 -18.6788 221.923Z" fill="#FBAA12"/>
<path opacity="0.3" d="M53.1337 145.707C59.1266 152.256 62.5054 159.657 62.5054 167.493C62.5054 194.22 23.2204 215.892 -25.2349 215.892C-54.9259 215.892 -81.171 207.756 -97.0472 195.31C-82.5969 211.095 -52.9265 221.923 -18.6787 221.923C29.7766 221.923 69.0615 200.257 69.0615 173.525C69.0615 163.172 63.1667 153.579 53.1337 145.707Z" fill="#EA831C"/>
<path opacity="0.25" d="M-132.101 157.543C-121.133 177.391 -87.6755 191.832 -48.1012 191.832C0.390244 191.832 39.7011 170.149 39.7011 143.402C39.7011 131.643 32.1013 120.862 19.4644 112.473C7.50948 110.199 -5.32375 108.963 -18.684 108.963C-73.3182 108.969 -119.211 129.622 -132.101 157.543Z" fill="#FFFFEB"/>
<path d="M-8.65087 174.124C6.77071 174.781 46.1177 177.98 20.0844 193.393C-7.19396 209.54 -15.1915 194.959 -18.1363 182.844C-21.0811 194.959 -29.0787 209.54 -56.357 193.393C-82.3903 177.98 -43.0433 174.781 -27.6218 174.124C-43.0433 173.468 -82.3903 170.269 -56.357 154.856C-29.0787 138.709 -22.1764 154.747 -19.2316 166.863C-16.2867 154.747 -7.19913 138.704 20.0792 154.856C46.1177 170.269 6.77588 173.468 -8.65087 174.124Z" fill="#C6640C"/>
<path d="M-9.74084 172.92C5.68075 173.576 45.0277 176.776 18.9945 192.188C-8.28392 208.335 -16.2815 193.755 -19.2263 181.639C-22.1712 193.755 -30.1686 208.335 -57.447 192.188C-83.4803 176.776 -44.1333 173.576 -28.7117 172.92C-44.1333 172.264 -83.4803 169.064 -57.447 153.651C-30.1686 137.505 -22.1712 152.085 -19.2263 164.201C-16.2815 152.085 -8.28392 137.505 18.9945 153.651C45.0277 169.064 5.68075 172.264 -9.74084 172.92Z" fill="#FCE13C"/>
<path d="M-18.1307 165.405C-15.1859 153.29 -7.18828 138.709 20.0901 154.856C22.8593 156.494 24.8793 157.993 26.2794 159.368C24.9413 157.678 22.601 155.781 19 153.651C-7.20894 138.135 -15.6146 150.984 -18.8488 162.764C-18.5853 163.647 -18.3477 164.531 -18.1307 165.405Z" fill="#FCFFAC"/>
<path d="M0.287419 173.571C-3.06038 173.85 21.0717 176.026 27.0285 181.122C24.0372 176.61 11.1161 174.527 0.287419 173.571Z" fill="#FCFFAC"/>
<path opacity="0.25" d="M16.7574 176.052C8.33105 173.98 -2.99357 173.209 -9.74084 172.92C5.68075 172.264 45.0277 169.064 18.9945 153.651C-8.28392 137.505 -16.2815 152.085 -19.2263 164.201C-22.1712 152.085 -30.1686 137.505 -57.447 153.651C-83.4803 169.064 -44.1333 172.264 -28.7117 172.92C-43.9008 173.566 -82.2869 176.683 -58.5888 191.496C-55.148 191.723 -51.6504 191.837 -48.1011 191.837C-39.0393 191.837 -30.2978 191.077 -22.0729 189.671C-20.7762 187.113 -19.8773 184.317 -19.2263 181.639C-18.658 183.976 -17.9037 186.4 -16.8601 188.679C-3.90804 185.96 7.57676 181.598 16.7574 176.052Z" fill="#FFFFEB"/>
<path d="M-104.234 175.328C-104.234 148.601 -64.9487 126.929 -16.4934 126.929C13.2803 126.929 39.5926 135.111 55.4533 147.619C39.8922 134.098 12.5054 125.12 -18.6788 125.12C-67.1341 125.12 -106.419 146.787 -106.419 173.519C-106.419 183.825 -100.581 193.377 -90.6255 201.228C-99.243 193.744 -104.234 184.859 -104.234 175.328Z" fill="#CF7310"/>
<path d="M-135.713 173.524C-135.713 196.835 -68.8496 231.511 -32.9899 240.83C-28.2988 241.181 -23.5251 241.362 -18.679 241.362C45.9573 241.362 98.3545 209.1 98.3545 173.447C98.3545 164.516 95.0687 156.013 89.1223 148.286C69.8466 136.92 42.4131 129.819 11.973 129.819C-46.3707 129.814 -135.713 141.34 -135.713 173.524Z" fill="#342D3F"/>
<path d="M58.6616 116.732C38.0426 98.3317 1.13419 86.0666 -40.9665 86.0666C-83.0671 86.0666 -119.976 98.3265 -140.595 116.732H-158C-158 135.701 -156.125 142.151 -155.815 150.622C-154.513 186.25 -105.603 215.178 -40.9665 215.178C23.6698 215.178 73.5304 186.25 74.9718 150.622C75.318 142.13 76.0619 137.148 76.0619 116.649L58.6616 116.732Z" fill="#C6640C"/>
<path d="M5.83012 157.677C4.46621 182.001 5.83012 209.705 5.83012 209.705C30.391 203.626 50.2092 192.881 62.2365 179.473C76.0616 160.355 73.8918 140.487 73.8918 121.771C73.8918 121.771 7.10621 134.925 5.83012 157.677Z" fill="#A3490A"/>
<path d="M76.0671 116.649C76.0671 152.302 23.6698 184.565 -40.9665 184.565C-105.603 184.565 -158 152.385 -158 116.732C-158 81.0789 -105.603 52.176 -40.9665 52.176C23.6698 52.176 76.0671 80.9962 76.0671 116.649Z" fill="url(#paint2_radial_1_627)"/>
<path opacity="0.7" d="M11.642 92.2532L60.397 149.857C63.3004 146.896 65.274 144.559 67.8676 140.972L-10.2323 54.4294C-15.5847 53.6283 -21.092 53.0287 -26.7233 52.6514L11.642 92.2532Z" fill="#FCFFAC"/>
<path d="M-38.7818 167.27C9.41048 167.27 48.478 145.722 48.478 119.14C48.478 92.5589 9.41048 71.0103 -38.7818 71.0103C-86.974 71.0103 -126.042 92.5589 -126.042 119.14C-126.042 145.722 -86.974 167.27 -38.7818 167.27Z" fill="#FCFFAC"/>
<path d="M-40.9664 165.131C7.49118 165.131 46.7738 143.462 46.7738 116.732C46.7738 90.0019 7.49118 68.3331 -40.9664 68.3331C-89.4241 68.3331 -128.707 90.0019 -128.707 116.732C-128.707 143.462 -89.4241 165.131 -40.9664 165.131Z" fill="#FBAA12"/>
<path opacity="0.3" d="M30.8461 88.9196C36.8391 95.4682 40.2178 102.87 40.2178 110.705C40.2178 137.432 0.932846 159.104 -47.5224 159.104C-77.2135 159.104 -103.459 150.969 -119.335 138.523C-104.885 154.308 -75.2141 165.136 -40.9663 165.136C7.48896 165.136 46.7739 143.469 46.7739 116.737C46.7739 106.379 40.8843 96.7862 30.8461 88.9196Z" fill="#EA831C"/>
<path opacity="0.25" d="M-154.384 100.756C-143.415 120.603 -109.958 135.044 -70.3838 135.044C-21.8923 135.044 17.4185 113.362 17.4185 86.6143C17.4185 74.8557 9.81874 64.074 -2.81816 55.6854C-14.7731 53.4112 -27.6063 52.1759 -40.9665 52.1759C-95.6008 52.1759 -141.494 72.8297 -154.384 100.756Z" fill="#FFFFEB"/>
<path d="M-30.9331 117.336C-15.5116 117.993 23.8355 121.192 -2.19781 136.605C-29.4762 152.752 -37.4737 138.171 -40.4186 126.056C-43.3634 138.171 -51.3609 152.752 -78.6393 136.605C-104.673 121.192 -65.3256 117.993 -49.904 117.336C-65.3256 116.68 -104.673 113.481 -78.6393 98.0679C-51.3609 81.9212 -44.4586 97.9594 -41.5138 110.075C-38.569 97.9594 -29.4814 81.916 -2.20298 98.0679C23.8355 113.476 -15.5116 116.675 -30.9331 117.336Z" fill="#C6640C"/>
<path d="M-32.0287 116.128C-16.6071 116.784 22.7399 119.983 -3.29339 135.396C-30.5718 151.543 -38.5693 136.962 -41.5141 124.847C-44.459 136.962 -52.4565 151.543 -79.7348 135.396C-105.768 119.983 -66.4211 116.784 -50.9996 116.128C-66.4211 115.471 -105.768 112.272 -79.7348 96.8591C-52.4565 80.7124 -44.459 95.2931 -41.5141 107.408C-38.5693 95.2931 -30.5718 80.7124 -3.29339 96.8591C22.7399 112.272 -16.602 115.471 -32.0287 116.128Z" fill="#FCE13C"/>
<path d="M-21.9958 116.778C-25.3436 117.057 -1.21158 119.233 4.74523 124.33C1.75391 119.823 -11.1723 117.74 -21.9958 116.778Z" fill="#FCFFAC"/>
<path opacity="0.25" d="M-5.53046 119.26C-13.9568 117.187 -25.2814 116.417 -32.0287 116.128C-16.6071 115.471 22.7399 112.272 -3.29339 96.8591C-30.5718 80.7124 -38.5693 95.2931 -41.5141 107.408C-44.459 95.2931 -52.4565 80.7124 -79.7348 96.8591C-105.768 112.272 -66.4211 115.471 -50.9996 116.128C-66.1887 116.774 -104.575 119.89 -80.8766 134.704C-77.4358 134.931 -73.9382 135.045 -70.3889 135.045C-61.3271 135.045 -52.5857 134.285 -44.3608 132.879C-43.0641 130.321 -42.1651 127.524 -41.5141 124.847C-40.9458 127.183 -40.1915 129.607 -39.1479 131.887C-26.1907 129.168 -14.7059 124.806 -5.53046 119.26Z" fill="#FFFFEB"/>
<path d="M-126.521 118.541C-126.521 91.814 -87.2364 70.1421 -38.7811 70.1421C-9.00735 70.1421 17.3049 78.324 33.1656 90.832C17.6046 77.3109 -9.7823 68.3331 -40.9664 68.3331C-89.4217 68.3331 -128.707 89.9999 -128.707 116.732C-128.707 127.038 -122.869 136.59 -112.913 144.441C-121.531 136.951 -126.521 128.067 -126.521 118.541Z" fill="#CF7310"/>
<path d="M73.189 131.111C67.227 107.858 31.6049 89.0698 -12.0508 87.6278C-60.4802 86.0307 -100.457 106.395 -101.336 133.111C-102.162 158.164 -68.3176 179.903 -24.1659 183.831C23.9484 179.598 62.6083 157.564 73.189 131.111Z" fill="#342D3F"/>
<path d="M99.5948 72.5558C78.9758 54.1556 42.0673 41.8905 -0.033371 41.8905C-42.134 41.8905 -79.0425 54.1504 -99.6614 72.5558H-117.067C-117.067 91.5246 -115.192 97.975 -114.882 106.446C-113.58 142.073 -64.6697 171.002 -0.033371 171.002C64.603 171.002 114.464 142.073 115.905 106.446C116.251 97.9543 116.995 92.9718 116.995 72.4731L99.5948 72.5558Z" fill="#C6640C"/>
<path d="M46.7629 113.502C45.4041 137.825 46.7629 165.529 46.7629 165.529C71.3238 159.451 91.1419 148.705 103.169 135.298C116.994 116.179 114.824 96.3058 114.824 77.5955C114.824 77.6006 48.039 90.7495 46.7629 113.502Z" fill="#A3490A"/>
<path d="M117 72.4731C117 108.126 64.6029 140.389 -0.0333786 140.389C-64.6697 140.389 -117.067 108.209 -117.067 72.5558C-117.067 36.9028 -64.6697 8 -0.0333786 8C64.6029 8 117 36.8253 117 72.4731Z" fill="url(#paint3_radial_1_627)"/>
<path opacity="0.7" d="M52.5751 48.0824L101.33 105.686C104.234 102.725 106.207 100.389 108.801 96.8017L30.7007 10.2586C25.3483 9.45743 19.841 8.8579 14.2097 8.48059L52.5751 48.0824Z" fill="#FCFFAC"/>
<path d="M2.15724 123.1C50.3495 123.1 89.4171 101.551 89.4171 74.9697C89.4171 48.3882 50.3495 26.8397 2.15724 26.8397C-46.035 26.8397 -85.1025 48.3882 -85.1025 74.9697C-85.1025 101.551 -46.035 123.1 2.15724 123.1Z" fill="#FCFFAC"/>
<path d="M-0.0331726 120.955C48.4244 120.955 87.7072 99.2859 87.7072 72.556C87.7072 45.826 48.4244 24.1572 -0.0331726 24.1572C-48.4908 24.1572 -87.7734 45.826 -87.7734 72.556C-87.7734 99.2859 -48.4908 120.955 -0.0331726 120.955Z" fill="#FBAA12"/>
<path opacity="0.3" d="M71.784 44.7435C77.777 51.2921 81.1558 58.6936 81.1558 66.5292C81.1558 93.256 41.8708 114.928 -6.58448 114.928C-36.2756 114.928 -62.5207 106.793 -78.3969 94.3466C-63.9466 110.132 -34.2762 120.96 -0.0284042 120.96C48.4269 120.96 87.7119 99.293 87.7119 72.561C87.7119 62.2083 81.8171 52.6153 71.784 44.7435Z" fill="#EA831C"/>
<path opacity="0.25" d="M-113.45 56.5797C-102.482 76.4271 -69.0248 90.8682 -29.4505 90.8682C19.041 90.8682 58.3518 69.1859 58.3518 42.4384C58.3518 30.6798 50.7521 19.8981 38.1152 11.5095C26.1602 9.23532 13.327 8 -0.0332565 8C-54.6675 8.00517 -100.56 28.6537 -113.45 56.5797Z" fill="#FFFFEB"/>
<path d="M-85.5881 74.365C-85.5881 47.6381 -46.3031 25.9662 2.15218 25.9662C31.9259 25.9662 58.2382 34.1481 74.0989 46.6561C58.5378 33.135 31.151 24.1572 -0.0331726 24.1572C-48.4885 24.1572 -87.7734 45.824 -87.7734 72.556C-87.7734 82.8622 -81.9354 92.4137 -71.9799 100.265C-80.5974 92.7755 -85.5881 83.8959 -85.5881 74.365Z" fill="#CF7310"/>
<path d="M205.123 416.235C177.203 391.319 127.226 374.711 70.2171 374.711C13.2086 374.711 -36.7691 391.312 -64.6892 416.235H-88.2579C-88.2579 441.92 -85.7185 450.655 -85.2987 462.126C-83.5358 510.368 -17.3069 549.541 70.2171 549.541C157.741 549.541 225.257 510.368 227.209 462.126C227.678 450.627 228.692 443.88 228.692 416.123L205.123 416.235Z" fill="#C6640C"/>
<path d="M133.585 471.679C131.738 504.615 133.585 542.129 133.585 542.129C166.843 533.898 193.678 519.348 209.965 501.193C228.685 475.304 225.747 448.401 225.747 423.058C225.747 423.058 135.313 440.863 133.585 471.679Z" fill="#A3490A"/>
<path d="M45.3053 548.449L41.9194 502.732L25.4373 448.919L-72.9721 430.162L-69.6281 499.807C-61.8348 509.038 -51.3692 517.374 -38.7208 524.464L-38.2451 463.28L4.57596 484.661L7.18536 500.164L6.3249 541.933C18.4835 545.019 31.5446 547.231 45.3053 548.449Z" fill="#DD8D19"/>
<path d="M228.692 416.122C228.692 464.4 157.741 508.087 70.2171 508.087C-17.3069 508.087 -88.2579 464.512 -88.2579 416.234C-88.2579 367.957 -17.3069 328.819 70.2171 328.819C157.741 328.819 228.692 367.845 228.692 416.122Z" fill="url(#paint4_radial_1_627)"/>
<path opacity="0.7" d="M-17.4258 423.17L-54.4684 362.273C-65.4937 370.014 -74.1965 378.805 -80.0099 388.33L7.18526 500.171C17.9028 502.788 28.1376 504.951 40.0374 506.33L-17.4258 423.17Z" fill="#FCFFAC"/>
<path d="M25.7379 370.189L32.4748 365.822L10.557 335.224C6.38057 336.161 2.30204 337.19 -1.68555 338.31L25.7379 370.189Z" fill="#FCFFAC"/>
<path opacity="0.7" d="M141.455 383.088L207.474 461.09C211.406 457.08 214.078 453.916 217.59 449.059L111.835 331.871C104.588 330.786 97.1302 329.974 89.5118 329.463L141.455 383.088Z" fill="#FCFFAC"/>
<path d="M73.1763 484.669C138.433 484.669 191.335 455.49 191.335 419.496C191.335 383.502 138.433 354.323 73.1763 354.323C7.91919 354.323 -44.9822 383.502 -44.9822 419.496C-44.9822 455.49 7.91919 484.669 73.1763 484.669Z" fill="#FCFFAC"/>
<path d="M70.2173 481.771C135.834 481.771 189.026 452.43 189.026 416.235C189.026 380.04 135.834 350.698 70.2173 350.698C4.60085 350.698 -48.5918 380.04 -48.5918 416.235C-48.5918 452.43 4.60085 481.771 70.2173 481.771Z" fill="#FBAA12"/>
<path opacity="0.3" d="M167.458 378.567C175.573 387.434 180.149 397.457 180.149 408.067C180.149 444.258 126.953 473.604 61.3395 473.604C21.1348 473.604 -14.4036 462.587 -35.9016 445.734C-16.3345 467.109 23.8422 481.771 70.2171 481.771C135.83 481.771 189.026 452.432 189.026 416.234C189.026 402.216 181.051 389.226 167.458 378.567Z" fill="#EA831C"/>
<path opacity="0.25" d="M-83.361 394.594C-68.509 421.47 -23.2044 441.024 30.3832 441.024C96.0454 441.024 149.276 411.664 149.276 375.445C149.276 359.523 138.985 344.924 121.874 333.565C105.686 330.485 88.3081 328.812 70.2171 328.812C-3.76316 328.819 -65.9065 356.787 -83.361 394.594Z" fill="#FFFFEB"/>
<path d="M83.8027 417.046C104.685 417.935 157.965 422.267 122.713 443.138C85.7755 465.002 74.946 445.258 70.9584 428.853C66.9709 445.258 56.1414 465.002 19.2038 443.138C-16.0479 422.267 37.2319 417.935 58.1142 417.046C37.2319 416.157 -16.0479 411.825 19.2038 390.955C56.1414 369.09 65.4878 390.808 69.4753 407.213C73.4629 390.808 85.7685 369.083 122.706 390.955C157.965 411.825 104.685 416.157 83.8027 417.046Z" fill="#C6640C"/>
<path d="M82.3197 415.416C103.202 416.304 156.482 420.637 121.23 441.507C84.2925 463.371 73.463 443.628 69.4754 427.223C65.4878 443.628 54.6584 463.371 17.7207 441.507C-17.5309 420.637 35.7488 416.304 56.6312 415.416C35.7488 414.527 -17.5309 410.195 17.7207 389.324C54.6584 367.46 65.4878 387.203 69.4754 403.609C73.463 387.203 84.2925 367.46 121.23 389.324C156.482 410.195 103.209 414.527 82.3197 415.416Z" fill="#FCE13C"/>
<path d="M44.5356 416.164C23.8911 417.879 -3.68618 422.568 9.34694 435.39C-1.92324 421.141 49.6355 416.619 44.5356 416.164Z" fill="#FCFFAC"/>
<path d="M70.9588 405.239C74.9464 388.834 85.7758 369.09 122.713 390.955C126.463 393.173 129.199 395.203 131.094 397.064C129.289 394.776 126.113 392.207 121.237 389.324C85.7479 368.313 74.3657 385.712 69.9864 401.663C70.3502 402.859 70.6719 404.056 70.9588 405.239Z" fill="#FCFFAC"/>
<path d="M95.8988 416.297C91.3656 416.675 124.043 419.622 132.109 426.523C128.058 420.413 110.562 417.592 95.8988 416.297Z" fill="#FCFFAC"/>
<path d="M19.2041 390.955C41.8144 377.573 54.6376 379.778 62.1021 387.266C54.8965 378.525 41.9053 375.011 17.721 389.324C5.13558 396.778 3.84136 402.118 8.31865 405.946C5.87713 402.272 8.31166 397.401 19.2041 390.955Z" fill="#FCFFAC"/>
<path opacity="0.25" d="M118.201 419.657C106.791 416.85 91.4561 415.808 82.3197 415.416C103.202 414.527 156.482 410.195 121.23 389.324C84.2925 367.46 73.463 387.203 69.4754 403.609C65.4878 387.203 54.6584 367.46 17.7207 389.324C-17.5309 410.195 35.7488 414.527 56.6312 415.416C36.0636 416.29 -15.9149 420.511 16.1747 440.569C20.8338 440.877 25.57 441.031 30.3761 441.031C42.6467 441.031 54.4835 440.002 65.6208 438.099C67.3767 434.634 68.5939 430.848 69.4754 427.223C70.2449 430.386 71.2663 433.669 72.6795 436.755C90.2249 433.074 105.776 427.167 118.201 419.657Z" fill="#FFFFEB"/>
<path d="M-45.6326 418.677C-45.6326 382.486 7.56323 353.14 73.1765 353.14C113.493 353.14 149.123 364.219 170.6 381.156C149.528 362.848 112.444 350.691 70.2173 350.691C4.604 350.691 -48.5918 380.03 -48.5918 416.227C-48.5918 430.183 -40.6866 443.117 -27.2057 453.748C-38.8747 443.607 -45.6326 431.583 -45.6326 418.677Z" fill="#CF7310"/>
<path d="M-31.3192 435.95C-31.3192 467.515 2.28848 494.754 50.8461 507.373C57.1982 507.849 63.6623 508.094 70.2244 508.094C157.748 508.094 228.699 464.407 228.699 416.129C228.699 404.035 224.25 392.522 216.198 382.059C190.097 366.669 152.949 357.052 111.73 357.052C32.7201 357.045 -31.3192 392.368 -31.3192 435.95Z" fill="#342D3F"/>
<path d="M167.381 344.091C139.461 319.175 89.4836 302.567 32.4751 302.567C-24.5334 302.567 -74.5112 319.168 -102.431 344.091H-126C-126 369.776 -123.461 378.511 -123.041 389.982C-121.278 438.225 -55.0489 477.397 32.4751 477.397C119.999 477.397 187.515 438.225 189.467 389.982C189.936 378.483 190.943 371.736 190.943 343.979L167.381 344.091Z" fill="#C6640C"/>
<path d="M95.8499 399.535C94.01 432.472 95.8499 469.985 95.8499 469.985C129.108 461.755 155.944 447.204 172.23 429.049C190.95 403.161 188.012 376.25 188.012 350.915C188.012 350.922 97.5709 368.727 95.8499 399.535Z" fill="#A3490A"/>
<path d="M7.56328 476.312L4.17735 430.596L-12.3047 376.782L-110.714 358.025L-107.37 427.67C-99.5769 436.902 -89.1112 445.237 -76.4628 452.327L-75.9871 391.143L-33.166 412.525L-30.5566 428.027L-31.4171 469.796C-19.2515 472.875 -6.19739 475.094 7.56328 476.312Z" fill="#DD8D19"/>
<path d="M190.95 343.979C190.95 392.256 119.999 435.943 32.4751 435.943C-55.0489 435.943 -126 392.368 -126 344.091C-126 295.813 -55.0489 256.676 32.4751 256.676C119.999 256.676 190.95 295.708 190.95 343.979Z" fill="url(#paint5_radial_1_627)"/>
<path opacity="0.7" d="M103.713 310.951L169.732 388.953C173.664 384.943 176.336 381.779 179.848 376.922L74.093 259.734C66.8454 258.649 59.388 257.837 51.7626 257.327L103.713 310.951Z" fill="#FCFFAC"/>
<path d="M35.4414 412.532C100.699 412.532 153.6 383.353 153.6 347.359C153.6 311.365 100.699 282.186 35.4414 282.186C-29.8157 282.186 -82.7171 311.365 -82.7171 347.359C-82.7171 383.353 -29.8157 412.532 35.4414 412.532Z" fill="#FCFFAC"/>
<path d="M32.4822 409.628C98.0986 409.628 151.291 380.286 151.291 344.091C151.291 307.896 98.0986 278.554 32.4822 278.554C-33.1343 278.554 -86.3269 307.896 -86.3269 344.091C-86.3269 380.286 -33.1343 409.628 32.4822 409.628Z" fill="#FBAA12"/>
<path opacity="0.3" d="M129.723 306.43C137.839 315.298 142.414 325.32 142.414 335.93C142.414 372.121 89.218 401.467 23.6047 401.467C-16.6 401.467 -52.1385 390.451 -73.6365 373.598C-54.0693 394.972 -13.8927 409.634 32.4823 409.634C98.0956 409.634 151.291 380.296 151.291 344.098C151.291 330.072 143.309 317.082 129.723 306.43Z" fill="#EA831C"/>
<path opacity="0.25" d="M-121.103 322.458C-106.251 349.333 -60.9464 368.888 -7.35886 368.888C58.3034 368.888 111.534 339.528 111.534 303.309C111.534 287.387 101.243 272.787 84.1317 261.428C67.9435 258.349 50.5661 256.676 32.475 256.676C-41.5052 256.683 -103.649 284.643 -121.103 322.458Z" fill="#FFFFEB"/>
<path d="M46.0604 344.91C66.9428 345.798 120.223 350.131 84.9709 371.001C48.0333 392.865 37.2038 373.122 33.2162 356.717C29.2286 373.122 18.3992 392.865 -18.5385 371.001C-53.7901 350.131 -0.510386 345.798 20.372 344.91C-0.510386 344.021 -53.7901 339.688 -18.5385 318.818C18.3992 296.954 27.7455 318.671 31.7331 335.076C35.7207 318.671 48.0263 296.947 84.9639 318.818C120.223 339.688 66.9498 344.021 46.0604 344.91Z" fill="#C6640C"/>
<path d="M44.5846 343.279C65.467 344.168 118.747 348.5 83.4951 369.371C46.5574 391.235 35.7279 371.491 31.7404 355.086C27.7528 371.491 16.9233 391.235 -20.0143 369.371C-55.266 348.5 -1.98622 344.168 18.8961 343.279C-1.98622 342.39 -55.266 338.058 -20.0143 317.188C16.9233 295.323 27.7528 315.067 31.7404 331.472C35.7279 315.067 46.5574 295.323 83.4951 317.188C118.747 338.051 65.467 342.39 44.5846 343.279Z" fill="#FCE13C"/>
<path d="M6.80058 344.028C-13.8439 345.743 -41.4212 350.432 -28.3881 363.254C-39.6583 349.004 11.8935 344.483 6.80058 344.028Z" fill="#FCFFAC"/>
<path d="M33.2234 333.096C37.211 316.691 48.0404 296.947 84.9781 318.811C88.7278 321.03 91.4631 323.059 93.359 324.921C91.5471 322.633 88.378 320.064 83.502 317.181C48.0124 296.17 36.6303 313.569 32.251 329.519C32.6078 330.723 32.9296 331.92 33.2234 333.096Z" fill="#FCFFAC"/>
<path d="M58.1636 344.154C53.6304 344.531 86.3076 347.478 94.3737 354.379C90.3232 348.276 72.8267 345.455 58.1636 344.154Z" fill="#FCFFAC"/>
<path d="M-18.5311 318.819C4.07921 305.437 16.9025 307.642 24.3669 315.13C17.1613 306.389 4.17016 302.875 -20.0142 317.188C-32.5996 324.642 -33.8938 329.982 -29.4165 333.81C-31.858 330.129 -29.4235 325.265 -18.5311 318.819Z" fill="#FCFFAC"/>
<path opacity="0.25" d="M80.4659 347.52C69.0558 344.714 53.7211 343.671 44.5846 343.279C65.467 342.39 118.747 338.058 83.4951 317.188C46.5574 295.323 35.7279 315.067 31.7404 331.472C27.7528 315.067 16.9233 295.323 -20.0143 317.188C-55.266 338.058 -1.98622 342.39 18.8961 343.279C-1.67141 344.154 -53.65 348.374 -21.5604 368.433C-16.9012 368.741 -12.165 368.895 -7.35894 368.895C4.91164 368.895 16.7485 367.866 27.8857 365.962C29.6417 362.498 30.8589 358.712 31.7404 355.086C32.5099 358.25 33.5313 361.532 34.9444 364.619C52.4828 360.937 68.0344 355.023 80.4659 347.52Z" fill="#FFFFEB"/>
<path d="M-83.3677 346.54C-83.3677 310.35 -30.1719 281.004 35.4414 281.004C75.758 281.004 111.387 292.083 132.864 309.02C111.793 290.711 74.7086 278.554 32.4822 278.554C-33.1311 278.554 -86.3269 307.893 -86.3269 344.091C-86.3269 358.046 -78.4217 370.98 -64.9409 381.611C-76.6098 371.47 -83.3677 359.439 -83.3677 346.54Z" fill="#CF7310"/>
<path d="M187.054 363.568C178.98 332.081 130.745 306.64 71.6304 304.687C6.05207 302.525 -48.0812 330.1 -49.2705 366.277C-50.3898 400.2 -4.56052 429.637 55.2253 434.956C120.377 429.217 172.726 399.381 187.054 363.568Z" fill="#342D3F"/>
<path d="M185.487 270.456C158.406 244.631 109.002 226.392 52.0213 224.516C-4.95222 222.64 -55.4547 237.59 -84.1723 261.575L-107.727 260.798C-108.574 286.47 -106.321 295.281 -106.279 306.759C-106.104 355.037 -41.2043 396.365 46.2708 399.248C133.746 402.132 202.514 365.199 206.054 317.054C206.901 305.576 208.132 298.864 209.048 271.128L185.487 270.456Z" fill="#C6640C"/>
<path d="M112.164 323.514C109.24 356.374 109.848 393.929 109.848 393.929C143.358 386.797 170.663 373.136 187.536 355.534C207.103 330.275 205.047 303.288 205.879 277.959C205.872 277.959 114.899 292.775 112.164 323.514Z" fill="#A3490A"/>
<path d="M21.4006 397.338L19.5188 351.538L4.81364 297.213L-92.9242 275.23L-91.8748 344.945C-84.3894 354.428 -74.2035 363.1 -61.793 370.609L-59.3025 309.475L-17.209 332.256L-15.1103 347.835L-17.3489 389.555C-5.28824 393.027 7.68891 395.665 21.4006 397.338Z" fill="#DD8D19"/>
<path d="M209.048 271.121C207.46 319.371 135.11 360.699 47.6349 357.815C-39.8401 354.932 -109.315 309.041 -107.727 260.791C-106.139 212.541 -33.9357 175.763 53.5324 178.646C141.007 181.53 210.636 222.872 209.048 271.121Z" fill="url(#paint6_radial_1_627)"/>
<path opacity="0.7" d="M-37.1677 270.057L-72.1885 207.978C-83.4587 215.347 -92.4482 223.851 -98.5695 233.18L-15.103 347.835C-4.47647 350.802 5.68135 353.301 17.5322 355.072L-37.1677 270.057Z" fill="#FCFFAC"/>
<path d="M7.71728 218.532L14.5941 214.389L-6.30222 183.083C-10.5067 183.881 -14.6202 184.777 -18.6428 185.764L7.71728 218.532Z" fill="#FCFFAC"/>
<path opacity="0.7" d="M122.937 235.231L186.354 315.368C190.418 311.49 193.189 308.411 196.862 303.679L95.0242 183.076C87.8116 181.753 80.3891 180.697 72.7917 179.941L122.937 235.231Z" fill="#FCFFAC"/>
<path d="M171.635 273.224C172.819 237.248 120.904 206.342 55.6793 204.195C-9.54523 202.047 -63.3797 229.47 -64.5634 265.446C-65.7471 301.422 -13.8317 332.327 51.3928 334.475C116.617 336.623 170.452 309.2 171.635 273.224Z" fill="#FCFFAC"/>
<path d="M169.437 269.883C170.627 233.706 118.426 202.628 52.8425 200.468C-12.7412 198.308 -66.8722 225.885 -68.0625 262.062C-69.2528 298.238 -17.0516 329.316 48.532 331.476C114.116 333.636 168.247 306.059 169.437 269.883Z" fill="#FBAA12"/>
<path opacity="0.3" d="M149.081 231.571C156.902 240.697 161.141 250.867 160.792 261.477C159.602 297.654 105.469 325.222 39.8907 323.066C-0.293003 321.744 -35.4467 309.566 -56.3781 292.006C-37.5245 314.017 2.14151 329.988 48.4955 331.514C114.074 333.677 168.207 306.101 169.396 269.924C169.858 255.913 162.317 242.671 149.081 231.571Z" fill="#EA831C"/>
<path opacity="0.25" d="M-102.131 239.332C-88.1741 266.684 -43.5341 287.722 10.0255 289.486C75.6528 291.648 129.821 264.059 131.01 227.854C131.535 211.939 121.734 197.011 105 185.092C88.9168 181.48 71.6092 179.241 53.5322 178.646C-20.4131 176.21 -83.4379 202.113 -102.131 239.332Z" fill="#FFFFEB"/>
<path d="M-65.2137 264.64C-64.0244 228.463 -9.8912 200.895 55.6871 203.051C95.9827 204.381 131.227 216.622 152.138 234.259C131.682 215.264 95.0173 201.896 52.8119 200.503C-12.7665 198.341 -66.8997 225.916 -68.089 262.093C-68.5507 276.041 -61.0722 289.227 -47.9482 300.299C-59.2813 289.78 -65.6335 277.539 -65.2137 264.64Z" fill="#CF7310"/>
</g>
<g opacity="0.3">
<path d="M1278.59 323.466C1276.6 373.062 1187.11 414.403 1078.95 410.041C970.792 405.679 884.921 357.376 886.917 307.78C888.913 258.185 978.213 221.519 1086.37 225.881C1194.53 230.243 1280.59 273.871 1278.59 323.466Z" fill="#342D3F"/>
<path d="M1180.5 223.344C1149.26 195.464 1093.34 176.881 1029.55 176.881C965.759 176.881 909.836 195.457 878.595 223.344H852.223C852.223 252.084 855.065 261.858 855.535 274.693C857.507 328.674 931.613 372.505 1029.55 372.505C1127.48 372.505 1203.03 328.674 1205.21 274.693C1205.74 261.826 1206.87 254.277 1206.87 223.218L1180.5 223.344Z" fill="#C6640C"/>
<path d="M1001.67 371.284L997.884 320.13L979.442 259.916L869.327 238.928L873.069 316.857C881.789 327.186 893.5 336.513 907.653 344.446L908.185 275.985L956.099 299.91L959.019 317.256L958.056 363.993C971.669 367.446 986.283 369.921 1001.67 371.284Z" fill="#DD8D19"/>
<path d="M1206.87 223.218C1206.87 277.238 1127.48 326.121 1029.55 326.121C931.613 326.121 852.231 277.364 852.231 223.344C852.231 169.324 931.621 125.531 1029.55 125.531C1127.49 125.531 1206.87 169.199 1206.87 223.218Z" fill="url(#paint7_radial_1_627)"/>
<path opacity="0.7" d="M931.488 231.105L890.039 162.965C877.703 171.627 867.965 181.463 861.46 192.121L959.026 317.264C971.018 320.193 982.471 322.613 995.786 324.156L931.488 231.105Z" fill="#FCFFAC"/>
<path d="M979.786 171.822L987.324 166.936L962.799 132.697C958.126 133.747 953.562 134.898 949.101 136.151L979.786 171.822Z" fill="#FCFFAC"/>
<path d="M1032.87 299.918C1105.89 299.918 1165.08 267.268 1165.08 226.993C1165.08 186.718 1105.89 154.068 1032.87 154.068C959.847 154.068 900.654 186.718 900.654 226.993C900.654 267.268 959.847 299.918 1032.87 299.918Z" fill="#FCFFAC"/>
<path d="M1029.56 296.676C1102.98 296.676 1162.5 263.844 1162.5 223.344C1162.5 182.844 1102.98 150.012 1029.56 150.012C956.135 150.012 896.615 182.844 896.615 223.344C896.615 263.844 956.135 296.676 1029.56 296.676Z" fill="#FBAA12"/>
<path opacity="0.3" d="M1138.36 181.204C1147.44 191.126 1152.56 202.34 1152.56 214.213C1152.56 254.708 1093.04 287.544 1019.62 287.544C974.635 287.544 934.869 275.218 910.814 256.36C932.709 280.277 977.664 296.683 1029.56 296.683C1102.97 296.683 1162.5 263.855 1162.5 223.352C1162.5 207.658 1153.56 193.123 1138.36 181.204Z" fill="#EA831C"/>
<path opacity="0.25" d="M857.71 199.137C874.329 229.209 925.022 251.09 984.983 251.09C1058.46 251.09 1118.02 218.238 1118.02 177.711C1118.02 159.895 1106.5 143.559 1087.36 130.849C1069.24 127.403 1049.8 125.531 1029.56 125.531C946.768 125.531 877.241 156.825 857.71 199.137Z" fill="#FFFFEB"/>
<path d="M1044.75 224.26C1068.12 225.254 1127.73 230.102 1088.29 253.455C1046.96 277.92 1034.84 255.828 1030.38 237.471C1025.92 255.828 1013.8 277.92 972.467 253.455C933.022 230.102 992.639 225.254 1016.01 224.26C992.639 223.265 933.022 218.418 972.467 195.065C1013.8 170.6 1024.26 194.901 1028.72 213.257C1033.18 194.901 1046.95 170.592 1088.28 195.065C1127.73 218.41 1068.12 223.265 1044.75 224.26Z" fill="#C6640C"/>
<path d="M1043.1 222.428C1066.46 223.422 1126.08 228.27 1086.64 251.623C1045.31 276.087 1033.19 253.995 1028.73 235.639C1024.26 253.995 1012.15 276.087 970.815 251.623C931.371 228.27 990.988 223.422 1014.35 222.428C990.988 221.433 931.371 216.586 970.815 193.233C1012.15 168.768 1024.26 190.86 1028.73 209.216C1033.19 190.86 1045.31 168.768 1086.64 193.233C1126.08 216.586 1066.46 221.433 1043.1 222.428Z" fill="#FCE13C"/>
<path d="M1000.82 223.273C977.72 225.192 946.863 230.439 961.446 244.786C948.835 228.833 1006.53 223.774 1000.82 223.273Z" fill="#FCFFAC"/>
<path d="M972.475 195.065C997.774 180.091 1012.12 182.558 1020.48 190.938C1012.41 181.157 997.876 177.225 970.815 193.24C956.733 201.58 955.285 207.556 960.295 211.839C957.563 207.72 960.287 202.277 972.475 195.065Z" fill="#FCFFAC"/>
<path opacity="0.25" d="M1083.25 227.173C1070.48 224.033 1053.32 222.866 1043.1 222.428C1066.46 221.433 1126.08 216.586 1086.64 193.233C1045.31 168.768 1033.19 190.86 1028.73 209.216C1024.26 190.86 1012.15 168.768 970.815 193.233C931.371 216.586 990.988 221.433 1014.35 222.428C991.34 223.407 933.179 228.129 969.085 250.573C974.299 250.918 979.598 251.09 984.976 251.09C998.706 251.09 1011.95 249.939 1024.41 247.809C1026.38 243.932 1027.74 239.696 1028.73 235.639C1029.59 239.179 1030.73 242.852 1032.31 246.305C1051.94 242.186 1069.34 235.576 1083.25 227.173Z" fill="#FFFFEB"/>
<path d="M899.926 226.085C899.926 185.589 959.449 152.753 1032.87 152.753C1077.98 152.753 1117.85 165.15 1141.88 184.101C1118.3 163.615 1076.8 150.012 1029.56 150.012C956.138 150.012 896.615 182.841 896.615 223.344C896.615 238.959 905.461 253.431 920.545 265.327C907.488 253.98 899.926 240.518 899.926 226.085Z" fill="#CF7310"/>
<path d="M915.934 245.404C915.934 280.723 953.539 311.202 1007.87 325.322C1014.98 325.855 1022.21 326.129 1029.56 326.129C1127.49 326.129 1206.88 277.246 1206.88 223.226C1206.88 209.694 1201.9 196.811 1192.89 185.104C1163.69 167.883 1122.12 157.123 1076 157.123C987.598 157.115 915.934 196.647 915.934 245.404Z" fill="#342D3F"/>
<path d="M1138.28 142.627C1107.04 114.748 1051.11 96.1644 987.324 96.1644C923.535 96.1644 867.613 114.74 836.372 142.627H810C810 171.368 812.842 181.141 813.311 193.977C815.284 247.958 889.39 291.789 987.324 291.789C1085.26 291.789 1160.81 247.958 1162.99 193.977C1163.51 181.11 1164.64 173.561 1164.64 142.502L1138.28 142.627Z" fill="#C6640C"/>
<path d="M959.449 290.567L955.661 239.414L937.218 179.199L827.104 158.211L830.846 236.14C839.566 246.469 851.276 255.797 865.429 263.73L865.961 195.269L913.876 219.193L916.795 236.539L915.833 283.276C929.445 286.73 944.052 289.205 959.449 290.567Z" fill="#DD8D19"/>
<path d="M1164.65 142.502C1164.65 196.522 1085.26 245.405 987.324 245.405C889.39 245.405 810 196.647 810 142.627C810 88.6075 889.39 44.8151 987.324 44.8151C1085.26 44.8151 1164.65 88.4822 1164.65 142.502Z" fill="url(#paint8_radial_1_627)"/>
<path opacity="0.7" d="M889.257 150.388L847.808 82.2485C835.472 90.9098 825.734 100.746 819.229 111.404L916.803 236.555C928.795 239.484 940.247 241.904 953.563 243.447L889.257 150.388Z" fill="#FCFFAC"/>
<path d="M937.562 91.1052L945.1 86.2185L920.576 51.9803C915.902 53.0297 911.339 54.1808 906.877 55.4338L937.562 91.1052Z" fill="#FCFFAC"/>
<path d="M990.635 219.201C1063.65 219.201 1122.85 186.552 1122.85 146.277C1122.85 106.001 1063.65 73.352 990.635 73.352C917.616 73.352 858.423 106.001 858.423 146.277C858.423 186.552 917.616 219.201 990.635 219.201Z" fill="#FCFFAC"/>
<path d="M987.324 215.959C1060.75 215.959 1120.26 183.127 1120.26 142.627C1120.26 102.127 1060.75 69.2955 987.324 69.2955C913.903 69.2955 854.384 102.127 854.384 142.627C854.384 183.127 913.903 215.959 987.324 215.959Z" fill="#FBAA12"/>
<path opacity="0.3" d="M1096.13 100.479C1105.21 110.402 1110.33 121.616 1110.33 133.488C1110.33 173.984 1050.81 206.82 977.391 206.82C932.404 206.82 892.639 194.494 868.584 175.636C890.478 199.553 935.434 215.959 987.324 215.959C1060.74 215.959 1120.26 183.131 1120.26 142.627C1120.26 126.941 1111.34 112.406 1096.13 100.479Z" fill="#EA831C"/>
<path opacity="0.25" d="M815.479 118.421C832.098 148.493 882.791 170.374 942.753 170.374C1016.22 170.374 1075.79 137.521 1075.79 96.9947C1075.79 79.1786 1064.27 62.8426 1045.13 50.1325C1027.01 46.6867 1007.57 44.8151 987.324 44.8151C904.545 44.8151 835.01 76.1087 815.479 118.421Z" fill="#FFFFEB"/>
<path d="M1002.53 143.536C1025.89 144.531 1085.51 149.378 1046.07 172.731C1004.73 197.196 992.617 175.104 988.155 156.747C983.693 175.104 971.575 197.196 930.244 172.731C890.8 149.378 950.417 144.531 973.783 143.536C950.417 142.541 890.8 137.694 930.244 114.341C971.575 89.8763 982.033 114.177 986.495 132.533C990.957 114.177 1004.73 89.8684 1046.06 114.341C1085.51 137.694 1025.89 142.541 1002.53 143.536Z" fill="#C6640C"/>
<path d="M1000.87 141.711C1024.23 142.706 1083.85 147.553 1044.41 170.906C1003.07 195.371 990.957 173.279 986.495 154.923C982.033 173.279 969.916 195.371 928.585 170.906C889.14 147.553 948.757 142.706 972.123 141.711C948.757 140.717 889.14 135.869 928.585 112.516C969.916 88.0516 982.033 110.144 986.495 128.5C990.957 110.144 1003.07 88.0516 1044.41 112.516C1083.85 135.869 1024.24 140.717 1000.87 141.711Z" fill="#FCE13C"/>
<path d="M958.589 142.557C935.489 144.475 904.632 149.722 919.215 164.069C906.612 148.117 964.295 143.058 958.589 142.557Z" fill="#FCFFAC"/>
<path d="M930.244 114.341C955.544 99.3677 969.892 101.835 978.244 110.214C970.182 100.433 955.645 96.5014 928.584 112.516C914.502 120.857 913.054 126.832 918.064 131.116C915.34 127.004 918.064 121.554 930.244 114.341Z" fill="#FCFFAC"/>
<path opacity="0.25" d="M1041.02 146.457C1028.25 143.317 1011.09 142.15 1000.87 141.711C1024.23 140.717 1083.85 135.869 1044.41 112.516C1003.07 88.0516 990.957 110.144 986.495 128.5C982.033 110.144 969.916 88.0516 928.585 112.516C889.14 135.869 948.757 140.717 972.123 141.711C949.109 142.69 890.948 147.412 926.855 169.857C932.068 170.201 937.367 170.374 942.745 170.374C956.475 170.374 969.72 169.223 982.182 167.092C984.147 163.216 985.509 158.979 986.495 154.923C987.356 158.462 988.499 162.135 990.08 165.589C1009.71 161.47 1027.11 154.86 1041.02 146.457Z" fill="#FFFFEB"/>
<path d="M857.695 145.368C857.695 104.873 917.218 72.0364 990.636 72.0364C1035.75 72.0364 1075.61 84.4333 1099.65 103.385C1076.07 82.8984 1034.57 69.2955 987.324 69.2955C913.907 69.2955 854.384 102.124 854.384 142.627C854.384 158.243 863.229 172.715 878.314 184.611C865.257 173.263 857.695 159.801 857.695 145.368Z" fill="#CF7310"/>
<path d="M1160.29 164.414C1151.26 129.181 1097.28 100.714 1031.14 98.5293C957.759 96.1095 897.187 126.965 895.856 167.444C894.604 205.402 945.884 238.341 1012.78 244.292C1085.68 237.879 1144.26 204.486 1160.29 164.414Z" fill="#342D3F"/>
<path d="M1208.77 86.9077C1178.46 58.0104 1123.18 37.6022 1059.43 35.5034C995.677 33.4047 939.167 50.1322 907.034 76.9699L880.678 76.1006C879.731 104.826 882.251 114.685 882.298 127.528C882.494 181.548 955.113 227.792 1052.99 231.018C1150.87 234.245 1227.82 192.919 1231.78 139.048C1232.73 126.205 1234.11 118.695 1235.13 87.6596L1208.77 86.9077Z" fill="#C6640C"/>
<path d="M1025.17 228.88L1023.07 177.633L1006.61 116.846L897.249 92.2485L898.423 170.256C906.799 180.867 918.196 190.57 932.083 198.973L934.87 130.567L981.97 156.057L984.318 173.49L981.813 220.172C995.301 224.056 1009.83 227.009 1025.17 228.88Z" fill="#DD8D19"/>
<path d="M1235.13 87.6518C1233.35 141.64 1152.4 187.884 1054.52 184.657C956.639 181.431 878.9 130.081 880.677 76.0928C882.454 22.1042 963.245 -19.049 1061.12 -15.8225C1159 -12.5961 1236.91 33.6631 1235.13 87.6518Z" fill="url(#paint9_radial_1_627)"/>
<path opacity="0.7" d="M959.629 86.4611L920.443 16.9979C907.832 25.2442 897.773 34.7592 890.924 45.1983L984.318 173.49C996.209 176.81 1007.57 179.606 1020.84 181.587L959.629 86.4611Z" fill="#FCFFAC"/>
<path d="M1009.85 28.8075L1017.55 24.1714L994.166 -10.8578C989.461 -9.96503 984.858 -8.96261 980.357 -7.85841L1009.85 28.8075Z" fill="#FCFFAC"/>
<path d="M1193.24 90.0131C1194.57 49.7581 1136.47 15.1766 1063.49 12.7733C990.51 10.3699 930.273 41.0547 928.948 81.3097C927.624 121.565 985.714 156.146 1058.7 158.55C1131.68 160.953 1191.92 130.268 1193.24 90.0131Z" fill="#FCFFAC"/>
<path d="M1190.78 86.2818C1192.11 45.802 1133.7 11.0276 1060.32 8.61098C986.933 6.19438 926.364 37.0507 925.032 77.5305C923.7 118.01 982.11 152.785 1055.49 155.201C1128.88 157.618 1189.45 126.762 1190.78 86.2818Z" fill="#FBAA12"/>
<path opacity="0.3" d="M1168.04 43.3974C1176.79 53.6094 1181.53 64.9882 1181.14 76.8603C1179.81 117.34 1119.24 148.187 1045.86 145.775C1000.9 144.295 961.562 130.669 938.141 111.02C959.237 135.65 1003.62 153.52 1055.49 155.228C1128.87 157.647 1189.44 126.792 1190.77 86.3127C1191.29 70.6345 1182.84 55.8178 1168.04 43.3974Z" fill="#EA831C"/>
<path opacity="0.25" d="M886.939 52.0823C902.556 82.6868 952.505 106.228 1012.44 108.201C1085.87 110.621 1146.48 79.7501 1147.81 39.239C1148.4 21.4308 1137.43 4.72671 1118.71 -8.60991C1100.71 -12.6508 1081.34 -15.1568 1061.12 -15.8225C978.376 -18.5478 907.855 10.4357 886.939 52.0823Z" fill="#FFFFEB"/>
<path d="M928.255 80.4C929.586 39.9203 990.158 9.07296 1063.54 11.485C1108.62 12.9729 1148.06 26.6698 1171.46 46.4045C1148.57 25.1505 1107.54 10.1928 1060.32 8.63443C986.94 6.21457 926.368 37.0697 925.038 77.5494C924.521 93.1571 932.889 107.911 947.574 120.3C934.893 108.53 927.777 94.833 928.255 80.4Z" fill="#CF7310"/>
</g>
</g>
<defs>
<filter id="filter0_d_1_627" x="0" y="0" width="988" height="818" filterUnits="userSpaceOnUse" color-interpolation-filters="sRGB">
<feFlood flood-opacity="0" result="BackgroundImageFix"/>
<feColorMatrix in="SourceAlpha" type="matrix" values="0 0 0 0 0 0 0 0 0 0 0 0 0 0 0 0 0 0 127 0" result="hardAlpha"/>
<feOffset dy="4"/>
<feGaussianBlur stdDeviation="2"/>
<feComposite in2="hardAlpha" operator="out"/>
<feColorMatrix type="matrix" values="0 0 0 0 0 0 0 0 0 0 0 0 0 0 0 0 0 0 0.25 0"/>
<feBlend mode="normal" in2="BackgroundImageFix" result="effect1_dropShadow_1_627"/>
<feBlend mode="normal" in="SourceGraphic" in2="effect1_dropShadow_1_627" result="shape"/>
</filter>
<radialGradient id="paint0_radial_1_627" cx="0" cy="0" r="1" gradientUnits="userSpaceOnUse" gradientTransform="translate(-29.6203 219.398) scale(95.0635 95.1048)">
<stop stop-color="#FBC01E"/>
<stop offset="0.4609" stop-color="#FDC822"/>
<stop offset="1" stop-color="#FCE13C"/>
</radialGradient>
<radialGradient id="paint1_radial_1_627" cx="0" cy="0" r="1" gradientUnits="userSpaceOnUse" gradientTransform="translate(-18.6801 175.162) scale(95.0635 95.1048)">
<stop stop-color="#FBC01E"/>
<stop offset="0.4609" stop-color="#FDC822"/>
<stop offset="1" stop-color="#FCE13C"/>
</radialGradient>
<radialGradient id="paint2_radial_1_627" cx="0" cy="0" r="1" gradientUnits="userSpaceOnUse" gradientTransform="translate(-40.9648 118.371) scale(95.0635 95.1048)">
<stop stop-color="#FBC01E"/>
<stop offset="0.4609" stop-color="#FDC822"/>
<stop offset="1" stop-color="#FCE13C"/>
</radialGradient>
<radialGradient id="paint3_radial_1_627" cx="0" cy="0" r="1" gradientUnits="userSpaceOnUse" gradientTransform="translate(-0.0308277 74.1978) scale(95.0635 95.1048)">
<stop stop-color="#FBC01E"/>
<stop offset="0.4609" stop-color="#FDC822"/>
<stop offset="1" stop-color="#FCE13C"/>
</radialGradient>
<radialGradient id="paint4_radial_1_627" cx="0" cy="0" r="1" gradientUnits="userSpaceOnUse" gradientTransform="translate(70.2185 418.452) scale(128.726 128.781)">
<stop stop-color="#FBC01E"/>
<stop offset="0.4609" stop-color="#FDC822"/>
<stop offset="1" stop-color="#FCE13C"/>
</radialGradient>
<radialGradient id="paint5_radial_1_627" cx="0" cy="0" r="1" gradientUnits="userSpaceOnUse" gradientTransform="translate(32.4802 346.314) scale(128.726 128.781)">
<stop stop-color="#FBC01E"/>
<stop offset="0.4609" stop-color="#FDC822"/>
<stop offset="1" stop-color="#FCE13C"/>
</radialGradient>
<radialGradient id="paint6_radial_1_627" cx="0" cy="0" r="1" gradientUnits="userSpaceOnUse" gradientTransform="translate(50.5823 268.231) rotate(1.88611) scale(128.726 128.781)">
<stop stop-color="#FBC01E"/>
<stop offset="0.4609" stop-color="#FDC822"/>
<stop offset="1" stop-color="#FCE13C"/>
</radialGradient>
<radialGradient id="paint7_radial_1_627" cx="0" cy="0" r="1" gradientUnits="userSpaceOnUse" gradientTransform="translate(1029.55 225.828) scale(144.036 144.099)">
<stop stop-color="#FBC01E"/>
<stop offset="0.4609" stop-color="#FDC822"/>
<stop offset="1" stop-color="#FCE13C"/>
</radialGradient>
<radialGradient id="paint8_radial_1_627" cx="0" cy="0" r="1" gradientUnits="userSpaceOnUse" gradientTransform="translate(987.328 145.111) scale(144.036 144.099)">
<stop stop-color="#FBC01E"/>
<stop offset="0.4609" stop-color="#FDC822"/>
<stop offset="1" stop-color="#FCE13C"/>
</radialGradient>
<radialGradient id="paint9_radial_1_627" cx="0" cy="0" r="1" gradientUnits="userSpaceOnUse" gradientTransform="translate(1057.82 84.4181) rotate(1.88611) scale(144.036 144.099)">
<stop stop-color="#FBC01E"/>
<stop offset="0.4609" stop-color="#FDC822"/>
<stop offset="1" stop-color="#FCE13C"/>
</radialGradient>
<clipPath id="clip0_1_627">
<rect width="980" height="810" fill="white" transform="translate(4)"/>
</clipPath>
</defs>
</svg>
