<svg width="980" height="810" viewBox="0 0 980 810" fill="none" xmlns="http://www.w3.org/2000/svg">
<g clip-path="url(#clip0_1_59)">
<rect width="980" height="810" fill="#2D3539"/>
<g opacity="0.6">
<path d="M890.185 -200.027C890.185 -200.027 816.295 58.1116 878.697 241.078C950.415 451.32 1095.32 469.762 995.796 725.118C1322.21 379.122 870.738 224.862 890.185 -200.027Z" fill="url(#paint0_linear_1_59)"/>
<path d="M890.184 -200.027C890.184 -200.027 944.549 45.7574 1077.41 193.645C1232.54 366.307 1198.41 490.269 995.795 725.119C1322.21 379.122 870.738 224.863 890.184 -200.027Z" fill="url(#paint1_linear_1_59)"/>
</g>
<g opacity="0.6">
<path d="M1063.5 196.565C1063.5 196.565 894.022 373.041 842.65 559.154C783.629 773.019 861.487 865.484 678.001 1026C1041.37 910.367 845.749 541.368 1063.5 196.565Z" fill="url(#paint2_linear_1_59)"/>
<path d="M1063.5 196.565C1063.5 196.565 976.844 430.911 984.695 625.168C993.873 851.979 913.294 937.443 678 1026C1041.37 910.367 845.748 541.369 1063.5 196.565Z" fill="url(#paint3_linear_1_59)"/>
</g>
<g opacity="0.6">
<path d="M-70.5649 255.926C-70.5649 255.926 122.447 432.123 170.734 619.233C226.207 834.244 124.168 928.251 335.483 1088.22C-98.5818 975.322 168.326 601.334 -70.5649 255.926Z" fill="url(#paint4_linear_1_59)"/>
<path d="M-70.5641 255.926C-70.5641 255.926 17.022 491.304 -7.51647 687.224C-36.1813 915.977 55.4655 1001.32 335.484 1088.22C-98.5809 975.322 168.327 601.334 -70.5641 255.926Z" fill="url(#paint5_linear_1_59)"/>
</g>
<g opacity="0.6">
<path d="M58.8674 -166.762C58.8674 -166.762 119.192 87.5219 53.7611 269.347C-21.4375 478.278 -158.694 498.527 -74.106 749.703C-369.29 412.027 61.8484 253.199 58.8674 -166.762Z" fill="url(#paint6_linear_1_59)"/>
<path d="M58.8684 -166.761C58.8684 -166.761 -1.25643 77.0816 -131.835 225.19C-284.308 398.11 -256.611 520.239 -74.105 749.703C-369.289 412.028 61.8494 253.199 58.8684 -166.761Z" fill="url(#paint7_linear_1_59)"/>
</g>
<g opacity="0.7">
<path d="M491.985 461.066C491.985 461.066 483.804 462.293 484.289 465.328C533.263 765.384 517.785 900.82 517.048 959.826C517.048 959.826 533.754 967.237 534.896 955.059C551.517 779.153 496.256 468.219 491.985 461.066Z" fill="url(#paint8_linear_1_59)"/>
<path d="M507.217 446.238C504.032 444.241 486.056 452.53 488.443 465.949C489.21 470.215 495.405 469.041 502.7 462.288C507.07 458.266 510.288 448.148 507.217 446.238Z" fill="url(#paint9_linear_1_59)"/>
<path d="M466.78 449.741C471.49 446.986 495.389 452.43 490.245 467.286C488.609 472.007 480.143 471.945 470.888 466.107C465.364 462.614 462.265 452.372 466.78 449.741Z" fill="url(#paint10_linear_1_59)"/>
<path d="M495.479 431.164C491.357 431.524 477.711 455.883 486.646 469.318C489.492 473.583 495.032 467.115 498.918 453.331C501.23 445.096 499.438 430.831 495.479 431.164Z" fill="url(#paint11_linear_1_59)"/>
<path d="M475.6 438.632C480.088 438.308 497.911 456.429 489.996 468.849C487.482 472.806 480.683 468.268 474.746 457.465C471.185 450.99 471.293 438.927 475.6 438.632Z" fill="url(#paint12_linear_1_59)"/>
</g>
<g opacity="0.7">
<path d="M372.179 311.345C372.179 311.345 363.702 312.573 364.204 315.607C414.952 615.663 398.914 751.099 398.15 810.105C398.15 810.105 415.46 817.516 416.644 805.339C433.867 629.433 376.605 318.499 372.179 311.345Z" fill="url(#paint13_linear_1_59)"/>
<path d="M387.963 296.518C384.662 294.521 366.036 302.81 368.509 316.228C369.304 320.495 375.724 319.321 383.282 312.567C387.811 308.546 391.145 298.427 387.963 296.518Z" fill="url(#paint14_linear_1_59)"/>
<path d="M346.061 300.02C350.941 297.265 375.706 302.709 370.376 317.565C368.681 322.286 359.908 322.225 350.317 316.386C344.594 312.893 341.382 302.651 346.061 300.02Z" fill="url(#paint15_linear_1_59)"/>
<path d="M375.799 281.443C371.529 281.803 357.388 306.163 366.647 319.597C369.596 323.862 375.337 317.395 379.364 303.611C381.759 295.375 379.902 281.111 375.799 281.443Z" fill="url(#paint16_linear_1_59)"/>
<path d="M355.201 288.911C359.852 288.587 378.32 306.709 370.119 319.128C367.514 323.085 360.468 318.547 354.316 307.744C350.626 301.269 350.738 289.206 355.201 288.911Z" fill="url(#paint17_linear_1_59)"/>
</g>
<g opacity="0.7">
<path d="M559.909 312.03C559.909 312.03 568.41 312.365 568.239 315.491C550.242 624.695 580.57 760.093 587.638 819.748C587.638 819.748 571.34 829.103 568.869 816.901C533.039 640.659 556.304 319.746 559.909 312.03Z" fill="url(#paint18_linear_1_59)"/>
<path d="M542.738 298.708C545.783 296.333 565.061 302.731 564.054 316.581C563.726 320.985 557.262 320.483 549.077 314.455C544.175 310.868 539.8 300.981 542.738 298.708Z" fill="url(#paint19_linear_1_59)"/>
<path d="M584.483 297.769C579.37 295.502 555.501 303.664 562.354 318.134C564.533 322.732 573.187 321.731 582.032 314.794C587.31 310.645 589.385 299.932 584.483 297.769Z" fill="url(#paint20_linear_1_59)"/>
<path d="M553.134 282.145C557.389 282.052 573.958 305.2 566.253 319.792C563.798 324.426 557.438 318.492 551.987 304.968C548.74 296.887 549.048 282.247 553.134 282.145Z" fill="url(#paint21_linear_1_59)"/>
<path d="M574.271 287.501C569.644 287.671 553.349 307.993 562.776 319.689C565.771 323.416 572.242 318.068 577.16 306.473C580.111 299.523 578.709 287.322 574.271 287.501Z" fill="url(#paint22_linear_1_59)"/>
</g>
<g opacity="0.7">
<path d="M180.447 372.235C180.447 372.235 174.257 374.468 175.098 376.671C258.691 596.147 279.34 697.698 271.56 809.554C271.56 809.554 283.834 812.527 284.736 803.116C304.163 602.277 184.849 376.979 180.447 372.235Z" fill="url(#paint23_linear_1_59)"/>
<path d="M190.061 358.603C187.279 357.602 174.546 366.72 178.429 376.501C179.667 379.613 184.314 377.749 188.975 371.48C191.757 367.737 192.736 359.558 190.061 358.603Z" fill="url(#paint24_linear_1_59)"/>
<path d="M159.109 367.645C162.364 364.826 181.792 365.15 180.034 377.225C179.484 381.061 172.865 382.355 164.779 379.397C159.949 377.626 155.991 370.356 159.109 367.645Z" fill="url(#paint25_linear_1_59)"/>
<path d="M178.628 349.053C175.479 349.978 168.54 370.587 177.527 379.336C180.386 382.123 183.718 376.347 184.65 365.303C185.216 358.68 181.654 348.16 178.628 349.053Z" fill="url(#paint26_linear_1_59)"/>
<path d="M164.291 357.848C167.73 356.893 184.36 367.783 180.08 378.457C178.72 381.846 172.744 379.489 166.477 372.25C162.717 367.906 160.974 358.757 164.291 357.848Z" fill="url(#paint27_linear_1_59)"/>
</g>
<g opacity="0.7">
<path d="M754.19 387.731C754.19 387.731 759.785 389.916 759.025 392.071C683.472 606.786 664.808 706.135 671.84 815.564C671.84 815.564 660.746 818.473 659.931 809.265C642.373 612.783 750.211 392.372 754.19 387.731Z" fill="url(#paint28_linear_1_59)"/>
<path d="M745.501 374.395C748.016 373.415 759.523 382.336 756.014 391.905C754.895 394.949 750.696 393.125 746.482 386.992C743.968 383.331 743.084 375.329 745.501 374.395Z" fill="url(#paint29_linear_1_59)"/>
<path d="M773.476 383.24C770.534 380.483 752.975 380.799 754.564 392.613C755.061 396.365 761.043 397.631 768.351 394.738C772.717 393.005 776.295 385.892 773.476 383.24Z" fill="url(#paint30_linear_1_59)"/>
<path d="M755.835 365.052C758.681 365.956 764.952 386.118 756.829 394.677C754.246 397.405 751.234 391.754 750.392 380.95C749.88 374.47 753.099 364.178 755.835 365.052Z" fill="url(#paint31_linear_1_59)"/>
<path d="M768.793 373.656C765.684 372.722 750.654 383.376 754.522 393.818C755.751 397.134 761.153 394.828 766.817 387.746C770.215 383.496 771.79 374.545 768.793 373.656Z" fill="url(#paint32_linear_1_59)"/>
</g>
</g>
<defs>
<linearGradient id="paint0_linear_1_59" x1="1240.5" y1="34.478" x2="891.377" y2="676.79" gradientUnits="userSpaceOnUse">
<stop stop-color="#9CD38B"/>
<stop offset="0.0186" stop-color="#9CD28A"/>
<stop offset="0.6632" stop-color="#91AB6B"/>
<stop offset="1" stop-color="#8D9C5F"/>
</linearGradient>
<linearGradient id="paint1_linear_1_59" x1="893.818" y1="305.992" x2="969.301" y2="118.551" gradientUnits="userSpaceOnUse">
<stop stop-color="#9CD38B"/>
<stop offset="0.0186" stop-color="#9CD28A"/>
<stop offset="0.6632" stop-color="#91AB6B"/>
<stop offset="1" stop-color="#8D9C5F"/>
</linearGradient>
<linearGradient id="paint2_linear_1_59" x1="1159.6" y1="578.849" x2="585.808" y2="774.011" gradientUnits="userSpaceOnUse">
<stop stop-color="#9CD38B"/>
<stop offset="0.0186" stop-color="#9CD28A"/>
<stop offset="0.6632" stop-color="#91AB6B"/>
<stop offset="1" stop-color="#8D9C5F"/>
</linearGradient>
<linearGradient id="paint3_linear_1_59" x1="820.22" y1="621.453" x2="976.714" y2="548.697" gradientUnits="userSpaceOnUse">
<stop stop-color="#9CD38B"/>
<stop offset="0.0186" stop-color="#9CD28A"/>
<stop offset="0.6632" stop-color="#91AB6B"/>
<stop offset="1" stop-color="#8D9C5F"/>
</linearGradient>
<linearGradient id="paint4_linear_1_59" x1="-217.173" y1="642.3" x2="411.56" y2="947.898" gradientUnits="userSpaceOnUse">
<stop stop-color="#9CD38B"/>
<stop offset="0.0186" stop-color="#9CD28A"/>
<stop offset="0.6632" stop-color="#91AB6B"/>
<stop offset="1" stop-color="#8D9C5F"/>
</linearGradient>
<linearGradient id="paint5_linear_1_59" x1="193.278" y1="681.813" x2="28.9025" y2="577.329" gradientUnits="userSpaceOnUse">
<stop stop-color="#9CD38B"/>
<stop offset="0.0186" stop-color="#9CD28A"/>
<stop offset="0.6632" stop-color="#91AB6B"/>
<stop offset="1" stop-color="#8D9C5F"/>
</linearGradient>
<linearGradient id="paint6_linear_1_59" x1="-279.819" y1="70.0298" x2="67.7676" y2="676.56" gradientUnits="userSpaceOnUse">
<stop stop-color="#9CD38B"/>
<stop offset="0.0186" stop-color="#9CD28A"/>
<stop offset="0.6632" stop-color="#91AB6B"/>
<stop offset="1" stop-color="#8D9C5F"/>
</linearGradient>
<linearGradient id="paint7_linear_1_59" x1="37.1624" y1="333.759" x2="-39.8673" y2="154.867" gradientUnits="userSpaceOnUse">
<stop stop-color="#9CD38B"/>
<stop offset="0.0186" stop-color="#9CD28A"/>
<stop offset="0.6632" stop-color="#91AB6B"/>
<stop offset="1" stop-color="#8D9C5F"/>
</linearGradient>
<linearGradient id="paint8_linear_1_59" x1="441.429" y1="511.136" x2="638.376" y2="913.793" gradientUnits="userSpaceOnUse">
<stop stop-color="#9CD38B"/>
<stop offset="0.0186" stop-color="#9CD28A"/>
<stop offset="0.6632" stop-color="#91AB6B"/>
<stop offset="1" stop-color="#8D9C5F"/>
</linearGradient>
<linearGradient id="paint9_linear_1_59" x1="498.773" y1="446.553" x2="496.95" y2="469.131" gradientUnits="userSpaceOnUse">
<stop stop-color="#9CD38B"/>
<stop offset="0.0186" stop-color="#9CD28A"/>
<stop offset="0.6632" stop-color="#91AB6B"/>
<stop offset="1" stop-color="#8D9C5F"/>
</linearGradient>
<linearGradient id="paint10_linear_1_59" x1="478.501" y1="448.454" x2="483.054" y2="471.329" gradientUnits="userSpaceOnUse">
<stop stop-color="#9CD38B"/>
<stop offset="0.0186" stop-color="#9CD28A"/>
<stop offset="0.6632" stop-color="#91AB6B"/>
<stop offset="1" stop-color="#8D9C5F"/>
</linearGradient>
<linearGradient id="paint11_linear_1_59" x1="486.787" y1="438.36" x2="502.423" y2="462.613" gradientUnits="userSpaceOnUse">
<stop stop-color="#9CD38B"/>
<stop offset="0.0186" stop-color="#9CD28A"/>
<stop offset="0.6632" stop-color="#91AB6B"/>
<stop offset="1" stop-color="#8D9C5F"/>
</linearGradient>
<linearGradient id="paint12_linear_1_59" x1="485.507" y1="443.427" x2="476.95" y2="466.962" gradientUnits="userSpaceOnUse">
<stop stop-color="#9CD38B"/>
<stop offset="0.0186" stop-color="#9CD28A"/>
<stop offset="0.6632" stop-color="#91AB6B"/>
<stop offset="1" stop-color="#8D9C5F"/>
</linearGradient>
<linearGradient id="paint13_linear_1_59" x1="319.793" y1="361.415" x2="512.41" y2="769.482" gradientUnits="userSpaceOnUse">
<stop stop-color="#9CD38B"/>
<stop offset="0.0186" stop-color="#9CD28A"/>
<stop offset="0.6632" stop-color="#91AB6B"/>
<stop offset="1" stop-color="#8D9C5F"/>
</linearGradient>
<linearGradient id="paint14_linear_1_59" x1="379.213" y1="296.833" x2="377.453" y2="319.421" gradientUnits="userSpaceOnUse">
<stop stop-color="#9CD38B"/>
<stop offset="0.0186" stop-color="#9CD28A"/>
<stop offset="0.6632" stop-color="#91AB6B"/>
<stop offset="1" stop-color="#8D9C5F"/>
</linearGradient>
<linearGradient id="paint15_linear_1_59" x1="358.207" y1="298.734" x2="362.612" y2="321.668" gradientUnits="userSpaceOnUse">
<stop stop-color="#9CD38B"/>
<stop offset="0.0186" stop-color="#9CD28A"/>
<stop offset="0.6632" stop-color="#91AB6B"/>
<stop offset="1" stop-color="#8D9C5F"/>
</linearGradient>
<linearGradient id="paint16_linear_1_59" x1="366.793" y1="288.639" x2="382.193" y2="313.392" gradientUnits="userSpaceOnUse">
<stop stop-color="#9CD38B"/>
<stop offset="0.0186" stop-color="#9CD28A"/>
<stop offset="0.6632" stop-color="#91AB6B"/>
<stop offset="1" stop-color="#8D9C5F"/>
</linearGradient>
<linearGradient id="paint17_linear_1_59" x1="365.467" y1="293.706" x2="357.142" y2="317.431" gradientUnits="userSpaceOnUse">
<stop stop-color="#9CD38B"/>
<stop offset="0.0186" stop-color="#9CD28A"/>
<stop offset="0.6632" stop-color="#91AB6B"/>
<stop offset="1" stop-color="#8D9C5F"/>
</linearGradient>
<linearGradient id="paint18_linear_1_59" x1="616.99" y1="357.114" x2="462.962" y2="788.163" gradientUnits="userSpaceOnUse">
<stop stop-color="#9CD38B"/>
<stop offset="0.0186" stop-color="#9CD28A"/>
<stop offset="0.6632" stop-color="#91AB6B"/>
<stop offset="1" stop-color="#8D9C5F"/>
</linearGradient>
<linearGradient id="paint19_linear_1_59" x1="551.411" y1="298.09" x2="555.712" y2="320.742" gradientUnits="userSpaceOnUse">
<stop stop-color="#9CD38B"/>
<stop offset="0.0186" stop-color="#9CD28A"/>
<stop offset="0.6632" stop-color="#91AB6B"/>
<stop offset="1" stop-color="#8D9C5F"/>
</linearGradient>
<linearGradient id="paint20_linear_1_59" x1="572.354" y1="297.767" x2="570.3" y2="321.443" gradientUnits="userSpaceOnUse">
<stop stop-color="#9CD38B"/>
<stop offset="0.0186" stop-color="#9CD28A"/>
<stop offset="0.6632" stop-color="#91AB6B"/>
<stop offset="1" stop-color="#8D9C5F"/>
</linearGradient>
<linearGradient id="paint21_linear_1_59" x1="562.796" y1="288.466" x2="549.684" y2="314.897" gradientUnits="userSpaceOnUse">
<stop stop-color="#9CD38B"/>
<stop offset="0.0186" stop-color="#9CD28A"/>
<stop offset="0.6632" stop-color="#91AB6B"/>
<stop offset="1" stop-color="#8D9C5F"/>
</linearGradient>
<linearGradient id="paint22_linear_1_59" x1="564.648" y1="293.454" x2="575.808" y2="316.387" gradientUnits="userSpaceOnUse">
<stop stop-color="#9CD38B"/>
<stop offset="0.0186" stop-color="#9CD28A"/>
<stop offset="0.6632" stop-color="#91AB6B"/>
<stop offset="1" stop-color="#8D9C5F"/>
</linearGradient>
<linearGradient id="paint23_linear_1_59" x1="135.929" y1="430.764" x2="372.191" y2="745.648" gradientUnits="userSpaceOnUse">
<stop stop-color="#9CD38B"/>
<stop offset="0.0186" stop-color="#9CD28A"/>
<stop offset="0.6632" stop-color="#91AB6B"/>
<stop offset="1" stop-color="#8D9C5F"/>
</linearGradient>
<linearGradient id="paint24_linear_1_59" x1="183.53" y1="360.179" x2="185.662" y2="377.548" gradientUnits="userSpaceOnUse">
<stop stop-color="#9CD38B"/>
<stop offset="0.0186" stop-color="#9CD28A"/>
<stop offset="0.6632" stop-color="#91AB6B"/>
<stop offset="1" stop-color="#8D9C5F"/>
</linearGradient>
<linearGradient id="paint25_linear_1_59" x1="168.033" y1="364.825" x2="174.907" y2="381.483" gradientUnits="userSpaceOnUse">
<stop stop-color="#9CD38B"/>
<stop offset="0.0186" stop-color="#9CD28A"/>
<stop offset="0.6632" stop-color="#91AB6B"/>
<stop offset="1" stop-color="#8D9C5F"/>
</linearGradient>
<linearGradient id="paint26_linear_1_59" x1="172.957" y1="355.871" x2="188.404" y2="372.143" gradientUnits="userSpaceOnUse">
<stop stop-color="#9CD38B"/>
<stop offset="0.0186" stop-color="#9CD28A"/>
<stop offset="0.6632" stop-color="#91AB6B"/>
<stop offset="1" stop-color="#8D9C5F"/>
</linearGradient>
<linearGradient id="paint27_linear_1_59" x1="172.728" y1="359.909" x2="170.027" y2="379.141" gradientUnits="userSpaceOnUse">
<stop stop-color="#9CD38B"/>
<stop offset="0.0186" stop-color="#9CD28A"/>
<stop offset="0.6632" stop-color="#91AB6B"/>
<stop offset="1" stop-color="#8D9C5F"/>
</linearGradient>
<linearGradient id="paint28_linear_1_59" x1="794.426" y1="444.991" x2="558.806" y2="735.111" gradientUnits="userSpaceOnUse">
<stop stop-color="#9CD38B"/>
<stop offset="0.0186" stop-color="#9CD28A"/>
<stop offset="0.6632" stop-color="#91AB6B"/>
<stop offset="1" stop-color="#8D9C5F"/>
</linearGradient>
<linearGradient id="paint29_linear_1_59" x1="751.404" y1="375.936" x2="749.152" y2="392.886" gradientUnits="userSpaceOnUse">
<stop stop-color="#9CD38B"/>
<stop offset="0.0186" stop-color="#9CD28A"/>
<stop offset="0.6632" stop-color="#91AB6B"/>
<stop offset="1" stop-color="#8D9C5F"/>
</linearGradient>
<linearGradient id="paint30_linear_1_59" x1="765.41" y1="380.482" x2="758.308" y2="396.381" gradientUnits="userSpaceOnUse">
<stop stop-color="#9CD38B"/>
<stop offset="0.0186" stop-color="#9CD28A"/>
<stop offset="0.6632" stop-color="#91AB6B"/>
<stop offset="1" stop-color="#8D9C5F"/>
</linearGradient>
<linearGradient id="paint31_linear_1_59" x1="760.96" y1="371.722" x2="745.834" y2="386.444" gradientUnits="userSpaceOnUse">
<stop stop-color="#9CD38B"/>
<stop offset="0.0186" stop-color="#9CD28A"/>
<stop offset="0.6632" stop-color="#91AB6B"/>
<stop offset="1" stop-color="#8D9C5F"/>
</linearGradient>
<linearGradient id="paint32_linear_1_59" x1="761.167" y1="375.673" x2="764.017" y2="394.425" gradientUnits="userSpaceOnUse">
<stop stop-color="#9CD38B"/>
<stop offset="0.0186" stop-color="#9CD28A"/>
<stop offset="0.6632" stop-color="#91AB6B"/>
<stop offset="1" stop-color="#8D9C5F"/>
</linearGradient>
<clipPath id="clip0_1_59">
<rect width="980" height="810" fill="white"/>
</clipPath>
</defs>
</svg>
