<svg width="980" height="810" viewBox="0 0 980 810" fill="none" xmlns="http://www.w3.org/2000/svg">
<g clip-path="url(#clip0_1_202)">
<rect width="980" height="810" fill="#132738"/>
<g opacity="0.3">
<path d="M291.849 804.595C305.387 814.495 321.129 820.396 337.07 824.353C340.535 825.22 344.039 825.947 347.543 826.66C361.52 829.471 376.425 824.66 389.991 827.835C385.066 822.549 380.089 817.431 375.709 811.6C372.138 806.832 370.001 801.575 366.232 796.988C356.808 785.466 348.008 773.301 337.588 762.716C363.444 789.018 399.587 798.051 435 804.595C412.874 791.87 390.747 779.104 368.607 766.379C355.361 758.773 341.504 750.509 333.752 736.861C350.569 750.872 372.351 747.894 393.415 743.685C359.303 736.218 326.412 722.459 296.746 703.218C315.515 708.028 334.854 710.21 354.153 709.734C337.787 703.498 321.182 697.094 307.139 686.229C295.14 676.972 285.491 664.779 274.633 654.068C255.52 635.247 232.451 620.635 216.789 598.597C204.883 581.846 197.649 561.291 183.022 547.154C171.448 535.884 156.17 529.633 144.423 518.615C135.185 509.959 128.27 498.521 117.718 491.753C70.7971 531.157 18.3149 568.674 -7.70055 625.626C-28.3005 670.694 -66.1025 703.875 -102.803 735.589C-112.306 743.755 -121.81 751.991 -132.23 758.829C-117.629 754.2 -105.736 751.306 -91.4941 745.629C-81.7516 741.783 -71.8366 737.518 -64.2841 729.982C-95.5557 770.994 -134.884 807.196 -177 835.581C-137.897 833.288 -100.626 825.723 -64.085 810.761C-83.3444 832.785 -104.396 853.424 -127.133 871.35C-104.329 871.588 -83.3179 861.967 -64.377 848.585C-45.4627 835.162 -29.296 817.935 -13.2885 800.862C-17.7218 829.932 -35.6008 856.15 -49.4447 881.753C-15.7839 862.946 16.1912 840.965 41.1846 810.664C38.4503 833.078 31.5616 855.507 23.4384 876.44C24.8055 872.958 30.3006 869.043 32.9154 866.54C36.539 863.072 40.2555 859.8 43.9056 856.402C50.3829 850.375 55.4798 841.16 59.6741 833.19C59.3556 847.341 59.0105 861.464 58.6654 875.615C58.5592 880.69 58.4132 885.766 57.5504 890.73C73.3986 861.939 90.3485 833.33 101.325 802.26C110.418 828.883 124.407 851.606 141.57 873.154C145.87 878.523 150.556 883.711 154.511 889.332C157.829 894.086 160.524 899.288 164.081 904C154.75 876.579 153.516 846.194 160.577 818.005C171.103 837.329 184.044 853.004 201.618 865.407C212.634 873.182 224.7 879.222 236.659 885.277C244.224 889.094 251.79 892.87 259.343 896.673C249.109 879.586 242.871 859.814 241.291 839.664C270.001 864.26 305.786 875.055 342.778 876.286C319.961 857.898 302.334 832.701 291.849 804.595Z" fill="#025D62"/>
<path d="M174.872 384.351C191.57 414.065 205.878 445.261 223.771 474.192C241.663 503.123 262.727 529.467 291.105 546.736C274.102 543.687 256.21 537.954 240.734 529.914C260.378 555.657 292.273 574.38 311.32 600.626C296.016 596.767 281.164 585.678 269.138 574.995C273.704 588.447 283.885 598.822 294.132 608.191C310.577 623.208 327.208 638.366 345.552 650.713C307.949 660.557 268.342 656.46 233.593 638.408C237.482 649.762 245.101 664.374 249.932 675.323C235.889 666.877 225.549 657.746 212.913 647.119C213.351 661.829 218.793 679.882 225.682 692.69C194.782 676.316 170.173 655.607 147.49 628.089C145.034 636.646 146.149 645.819 147.29 654.67C149.746 673.659 151.312 693.515 153.768 712.504C143.508 699.332 133.234 686.146 122.974 672.974C113.231 660.473 102.241 651.594 96.3479 636.66C86.8178 674.442 62.6606 705.904 39.4591 736.415C44.8082 707.624 47.6619 674.288 44.6091 645.134C23.4781 676.945 -2.53729 702.66 -34.738 721.551C-24.0664 697.626 -14.4699 672.862 -10.2888 646.784C-28.0218 663.899 -51.0109 673.771 -74.1727 680.595C-97.3344 687.418 -119.593 689.236 -142.556 696.773C-115.864 673.617 -91.1092 646.602 -71.9029 616.301C-79.5749 622.272 -89.5828 623.404 -99.0864 624.341C-115.2 625.935 -127.77 628.145 -143.883 629.739C-104.011 604.975 -67.8812 578.057 -32.9461 546.064C-46.8564 552.469 -60.926 552.916 -76.0575 551.546C-30.9685 526.069 7.07249 486.93 32.3314 440.059C49.6396 407.926 72.35 374.409 89.0875 341.954C92.3793 335.564 95.6843 328.978 100.808 324.112C109.356 316.016 122.655 314.045 132.982 319.372C143.242 324.658 149.547 335.634 155.281 346.038C162.263 358.748 167.771 371.724 174.872 384.351Z" fill="#096969"/>
<path d="M273.213 518.392C258.546 505.122 240.587 496.606 223.81 486.441C207.033 476.275 189.207 463.69 180.699 445.401C184.004 455.622 187.11 465.914 190.07 476.247C168.726 459.775 150.356 438.619 139.154 413.38C137.574 423.447 135.981 433.529 134.442 443.639C131.92 459.719 129.862 478.037 132.477 494.131C122.522 481.868 117.173 466.291 112.05 451.078C108.068 439.304 105.798 427.754 101.83 415.966C92.8303 443.485 82.7958 471.675 73.7833 499.193C75.2566 490.775 74.5664 482.162 73.8496 473.646C72.3497 455.762 73.1594 435.417 71.6861 417.505C60.5101 442.478 39.4854 464.529 18.965 481.715C23.9823 469.186 29.1588 455.538 35.1981 442.87C35.1583 442.94 35.1317 442.982 35.0654 443.009C32.1718 444.506 29.1721 449.204 26.7829 451.553C23.6239 454.657 20.3852 457.678 17.0802 460.614C4.13886 472.08 -9.98381 482.064 -25.0621 490.118C-40.8041 498.536 -57.7142 503.486 -73.9075 510.729C-71.3192 507.765 -68.7044 504.87 -66.1427 501.864C-55.7232 489.671 -45.702 477.114 -36.0656 464.222C-16.5408 438.129 1.35149 410.681 17.1997 381.96C-1.83408 396.852 -23.7348 407.912 -47.2151 411.24C-14.6294 389.329 19.8012 364.942 43.1355 332.432C28.1368 344.374 11.2798 352.4 -7.34245 355.015C19.7879 339.829 41.7285 315.694 58.6917 288.721C75.6548 261.734 87.959 231.866 99.2412 201.775C103.993 189.134 108.599 176.354 111.001 163C114.85 181.765 121.169 196.336 126.159 214.835C129.186 226.063 132.411 237.222 136.911 247.863C151.484 282.317 177.487 307.123 203.728 332.81C202.626 334.054 200.648 333.537 199.109 332.949C192.671 330.377 185.676 327.86 179.225 325.287C185.743 339.857 194.091 353.518 205.772 363.922C196.003 361.712 189.924 357.406 181.867 351.183C187.561 362.901 195.578 373.094 203.542 383.218C222.204 406.947 243.799 430.215 262.462 453.944C257.67 453.609 253.21 451.204 248.963 448.826C244.437 446.296 239.91 443.779 235.371 441.29C228.429 437.416 222.164 433.893 218.965 426.342C230.805 456.531 250.569 482.386 269.072 508.632C270.877 511.163 272.762 515.26 273.213 518.392Z" fill="#0F8A80"/>
<path d="M35.2775 406.54C35.2377 406.637 35.1978 406.721 35.1448 406.819C33.0874 410.902 30.8177 414.873 28.3223 418.677C24.9642 423.766 21.1548 428.577 18.4205 434.072C26.8755 427.78 34.4014 419.991 39.8833 410.748C43.0688 405.379 45.5376 399.576 47.9666 393.773C49.5594 389.97 51.1389 386.138 52.1477 382.125C53.329 377.399 54.6696 369.219 52.8777 364.087C50.3425 379.231 43.2016 393.34 35.2775 406.54Z" fill="#19807A"/>
<path d="M171.342 389.383C163.458 373.862 155.799 358.089 148.287 342.372C144.849 335.157 141.531 327.886 138.292 320.573C140.11 324.684 140.469 330.823 141.345 335.395C143.229 345.183 144.517 355.167 147.543 364.661C150.862 375.079 156.357 382.378 163.776 389.887C168.993 395.158 174.342 400.36 180.501 404.331C177.249 399.493 173.997 394.627 171.342 389.383Z" fill="#19807A"/>
<path d="M54.6301 420.104C58.9572 416.93 61.9304 412.12 64.5585 407.296C69.8014 397.676 74.0886 387.482 77.3671 376.939C76.3052 385.538 75.2301 394.138 74.1682 402.738C81.5747 388.251 85.9946 372.073 86.9901 355.643C86.8972 357.153 81.0172 362.354 79.8226 363.459C78.7342 364.466 78.2564 365.655 76.6504 365.487C75.5752 365.375 75.2965 363.459 74.155 363.515C70.3058 363.725 69.1775 376.827 68.4608 379.707C65.023 393.565 60.3907 407.114 54.6301 420.104Z" fill="#19807A"/>
<path d="M51.9751 661.801C65.0625 650.755 65.2748 628.13 78.84 617.741C79.6364 620.957 80.4328 624.159 81.2159 627.375C84.9988 625.977 86.8968 621.684 89.0604 618.132C91.2239 614.581 95.1395 611.127 98.8427 612.721C100.86 613.588 102.081 615.685 103.329 617.573C105.426 620.719 107.935 623.558 110.775 625.977C111.253 626.396 111.811 626.816 112.434 626.774C113.417 626.732 114.001 625.641 114.399 624.704C116.908 618.776 119.416 612.861 121.911 606.932C126.756 611.239 132.119 614.874 137.826 617.755C139.14 618.412 140.693 619.027 141.981 618.328C142.883 617.839 143.401 616.818 143.812 615.839C146.693 608.987 147.17 601.031 145.113 593.844C144.848 592.907 144.502 591.942 143.786 591.327C141.144 589.062 138.118 593.368 135.702 595.899C131.203 600.598 123.172 599.087 118.593 594.459C114.027 589.845 112.063 583.119 110.404 576.673C108.731 570.24 107.059 563.487 102.825 558.523C101.378 569.807 99.9179 581.105 98.4711 592.39C98.0463 595.648 96.3606 599.926 93.3078 599.227C93.4671 595.172 89.2329 591.649 85.5297 592.739C82.4769 593.634 80.5921 596.78 79.0126 599.689C77.9773 601.604 76.7031 604.303 74.8183 605.436C71.9911 607.128 69.9337 605.03 67.81 605.841C64.7572 606.988 66.7349 604.639 64.2926 608.232C62.9122 610.288 62.9122 616.384 62.4609 618.831C59.7399 633.346 56.2358 647.692 51.9751 661.801Z" fill="#127370"/>
<path d="M195.67 660.457C186.06 647.635 179.689 632.156 177.366 616.005C185.091 623.989 192.192 632.659 198.577 641.874C199.93 640.881 199.24 638.658 198.417 637.147C189.737 621.067 181.043 604.987 172.362 588.906C168.566 595.436 174.287 604.665 170.729 611.363C166.017 604.679 161.651 597.716 157.762 590.458C154.364 602.847 159.076 613.306 164.571 624.255C172.349 639.734 185.861 647.355 195.67 660.457Z" fill="#127370"/>
<path d="M11.1604 644.255C14.1336 636.215 16.682 627.993 18.8057 619.659C21.0887 610.71 23.2655 600.936 30.088 595.091C27.9908 596.895 32.2515 604.795 32.4108 606.766C32.7957 611.199 31.6542 613.744 29.3978 618.135C24.5132 627.671 18.3677 636.494 11.1604 644.255Z" fill="#127370"/>
<path d="M228.549 578.421C243.415 587.747 258.879 596.025 274.793 603.157C251.339 577.791 230.992 549.238 214.413 518.434C219.125 535.717 223.837 553 228.549 570.269C221.369 563.459 213.657 556.286 205.308 551.14C210.976 569.234 218.356 589.118 231.244 603.003C231.085 599.787 230.806 579.847 228.549 578.421Z" fill="#127370"/>
<path d="M-52.192 583.554C-41.9186 581.386 -32.7866 575.388 -24.0927 569.221C-18.3056 565.11 -12.5583 560.845 -7.80648 555.462C-0.678783 547.394 4.73666 536.123 5.24104 525.021C-2.11231 534.068 -8.19142 543.283 -16.8854 551.043C-22.6725 556.203 -28.5658 561.195 -34.2865 566.439C-38.295 570.116 -47.2146 582.505 -52.192 583.554Z" fill="#127370"/>
<path d="M215.939 826.674C213.934 811.684 211.93 796.708 209.913 781.718C213.749 787.228 217.598 792.751 221.434 798.26C212.156 769.469 201.298 741.238 188.941 713.761C193.587 725.912 195.604 739.182 194.781 752.256C191.37 750.998 188.37 748.537 186.366 745.363C201.338 769.148 202.705 801.295 215.939 826.674Z" fill="#096969"/>
<path d="M77.5131 757.261C72.6418 766.364 68.9519 776.18 66.6025 786.346C71.0491 780.11 76.5707 774.74 82.8091 770.573C83.5258 770.098 84.455 769.636 85.1452 770.154C85.5832 770.489 85.7292 771.104 85.7956 771.678C86.0876 774.167 85.6097 776.698 85.7823 779.187C85.9681 781.69 87.0963 784.402 89.366 785.199C92.9233 776.11 95.1797 766.476 96.0425 756.688C93.5736 757.303 91.5163 759.037 89.2599 760.282C87.0034 761.526 84.1364 762.225 82.0127 760.757C79.889 759.289 78.3891 755.807 75.9601 756.576" fill="#096969"/>
</g>
<g opacity="0.3">
<path d="M707.151 810.595C693.613 820.495 677.871 826.396 661.93 830.353C658.465 831.22 654.961 831.947 651.457 832.66C637.48 835.471 622.575 830.66 609.009 833.835C613.934 828.549 618.911 823.431 623.291 817.6C626.862 812.832 628.999 807.575 632.768 802.988C642.192 791.466 650.992 779.301 661.412 768.716C635.556 795.018 599.413 804.051 564 810.595C586.126 797.87 608.253 785.104 630.393 772.379C643.639 764.773 657.496 756.509 665.248 742.861C648.431 756.872 626.649 753.894 605.585 749.685C639.697 742.218 672.588 728.459 702.254 709.218C683.485 714.028 664.146 716.21 644.847 715.734C661.213 709.498 677.818 703.094 691.861 692.229C703.86 682.972 713.509 670.779 724.367 660.068C743.48 641.247 766.549 626.635 782.211 604.597C794.117 587.846 801.351 567.291 815.978 553.154C827.552 541.884 842.83 535.633 854.577 524.615C863.815 515.959 870.73 504.521 881.282 497.753C928.203 537.157 980.685 574.674 1006.7 631.626C1027.3 676.694 1065.1 709.875 1101.8 741.589C1111.31 749.755 1120.81 757.991 1131.23 764.829C1116.63 760.2 1104.74 757.306 1090.49 751.629C1080.75 747.783 1070.84 743.518 1063.28 735.982C1094.56 776.994 1133.88 813.196 1176 841.581C1136.9 839.288 1099.63 831.723 1063.09 816.761C1082.34 838.785 1103.4 859.424 1126.13 877.35C1103.33 877.588 1082.32 867.967 1063.38 854.585C1044.46 841.162 1028.3 823.935 1012.29 806.862C1016.72 835.932 1034.6 862.15 1048.44 887.753C1014.78 868.946 982.809 846.965 957.815 816.664C960.55 839.078 967.438 861.507 975.562 882.44C974.194 878.958 968.699 875.043 966.085 872.54C962.461 869.072 958.745 865.8 955.094 862.402C948.617 856.375 943.52 847.16 939.326 839.19C939.644 853.341 939.99 867.464 940.335 881.615C940.441 886.69 940.587 891.766 941.45 896.73C925.601 867.939 908.652 839.33 897.675 808.26C888.582 834.883 874.593 857.606 857.43 879.154C853.13 884.523 848.444 889.711 844.489 895.332C841.171 900.086 838.476 905.288 834.919 910C844.25 882.579 845.484 852.194 838.423 824.005C827.897 843.329 814.956 859.004 797.382 871.407C786.366 879.182 774.3 885.222 762.341 891.277C754.776 895.094 747.21 898.87 739.657 902.673C749.891 885.586 756.129 865.814 757.709 845.664C728.999 870.26 693.214 881.055 656.222 882.286C679.039 863.898 696.666 838.701 707.151 810.595Z" fill="#025D62"/>
<path d="M824.128 390.351C807.43 420.065 793.122 451.261 775.23 480.192C757.337 509.123 736.273 535.467 707.895 552.736C724.898 549.687 742.79 543.954 758.266 535.914C738.622 561.657 706.727 580.38 687.68 606.626C702.984 602.767 717.836 591.678 729.862 580.995C725.296 594.447 715.115 604.822 704.868 614.191C688.423 629.208 671.792 644.366 653.448 656.713C691.051 666.557 730.658 662.46 765.407 644.408C761.518 655.762 753.9 670.374 749.068 681.323C763.111 672.877 773.451 663.746 786.087 653.119C785.649 667.829 780.207 685.882 773.318 698.69C804.218 682.316 828.827 661.607 851.511 634.089C853.966 642.646 852.851 651.819 851.71 660.67C849.254 679.659 847.688 699.515 845.232 718.504C855.493 705.332 865.766 692.146 876.026 678.974C885.769 666.473 896.759 657.594 902.652 642.66C912.182 680.442 936.34 711.904 959.541 742.415C954.192 713.624 951.338 680.288 954.391 651.134C975.522 682.945 1001.54 708.66 1033.74 727.551C1023.07 703.626 1013.47 678.862 1009.29 652.784C1027.02 669.899 1050.01 679.771 1073.17 686.595C1096.33 693.418 1118.59 695.236 1141.56 702.773C1114.86 679.617 1090.11 652.602 1070.9 622.301C1078.57 628.272 1088.58 629.404 1098.09 630.341C1114.2 631.935 1126.77 634.145 1142.88 635.739C1103.01 610.975 1066.88 584.057 1031.95 552.064C1045.86 558.469 1059.93 558.916 1075.06 557.546C1029.97 532.069 991.928 492.93 966.669 446.059C949.361 413.926 926.65 380.409 909.913 347.954C906.621 341.564 903.316 334.978 898.192 330.112C889.644 322.016 876.345 320.045 866.018 325.372C855.758 330.658 849.453 341.634 843.719 352.038C836.738 364.748 831.229 377.724 824.128 390.351Z" fill="#096969"/>
<path d="M725.787 524.392C740.454 511.122 758.413 502.606 775.19 492.441C791.967 482.275 809.793 469.69 818.301 451.401C814.996 461.622 811.89 471.914 808.93 482.247C830.274 465.775 848.644 444.619 859.846 419.38C861.426 429.447 863.019 439.529 864.558 449.639C867.08 465.719 869.138 484.037 866.523 500.131C876.478 487.868 881.827 472.291 886.95 457.078C890.932 445.304 893.202 433.754 897.17 421.966C906.17 449.485 916.204 477.675 925.217 505.193C923.743 496.775 924.434 488.162 925.15 479.646C926.65 461.762 925.841 441.417 927.314 423.505C938.49 448.478 959.515 470.529 980.035 487.715C975.018 475.186 969.841 461.538 963.802 448.87C963.842 448.94 963.868 448.982 963.935 449.009C966.828 450.506 969.828 455.204 972.217 457.553C975.376 460.657 978.615 463.678 981.92 466.614C994.861 478.08 1008.98 488.064 1024.06 496.118C1039.8 504.536 1056.71 509.486 1072.91 516.729C1070.32 513.765 1067.7 510.87 1065.14 507.864C1054.72 495.671 1044.7 483.114 1035.07 470.222C1015.54 444.129 997.649 416.681 981.8 387.96C1000.83 402.852 1022.73 413.912 1046.22 417.24C1013.63 395.329 979.199 370.942 955.865 338.432C970.863 350.374 987.72 358.4 1006.34 361.015C979.212 345.829 957.271 321.694 940.308 294.721C923.345 267.734 911.041 237.866 899.759 207.775C895.007 195.134 890.401 182.354 887.999 169C884.15 187.765 877.831 202.336 872.841 220.835C869.814 232.063 866.589 243.222 862.089 253.863C847.516 288.317 821.513 313.123 795.272 338.81C796.374 340.054 798.352 339.537 799.891 338.949C806.329 336.377 813.324 333.86 819.775 331.287C813.257 345.857 804.909 359.518 793.228 369.922C802.997 367.712 809.076 363.406 817.133 357.183C811.439 368.901 803.422 379.094 795.458 389.218C776.796 412.947 755.201 436.215 736.538 459.944C741.33 459.609 745.79 457.204 750.037 454.826C754.563 452.296 759.09 449.779 763.629 447.29C770.571 443.416 776.836 439.893 780.035 432.342C768.195 462.531 748.431 488.386 729.928 514.632C728.123 517.163 726.238 521.26 725.787 524.392Z" fill="#0F8A80"/>
<path d="M963.722 412.54C963.762 412.637 963.802 412.721 963.855 412.819C965.912 416.902 968.182 420.873 970.678 424.677C974.036 429.766 977.845 434.577 980.579 440.072C972.124 433.78 964.598 425.991 959.117 416.748C955.931 411.379 953.462 405.576 951.033 399.773C949.44 395.97 947.861 392.138 946.852 388.125C945.671 383.399 944.33 375.219 946.122 370.087C948.657 385.231 955.798 399.34 963.722 412.54Z" fill="#19807A"/>
<path d="M827.658 395.383C835.542 379.862 843.201 364.089 850.713 348.372C854.151 341.157 857.469 333.886 860.708 326.573C858.89 330.684 858.531 336.823 857.655 341.395C855.77 351.183 854.483 361.167 851.457 370.661C848.138 381.079 842.643 388.378 835.224 395.887C830.007 401.158 824.658 406.36 818.499 410.331C821.751 405.493 825.003 400.627 827.658 395.383Z" fill="#19807A"/>
<path d="M944.37 426.104C940.043 422.93 937.07 418.12 934.442 413.296C929.199 403.676 924.911 393.482 921.633 382.939C922.695 391.538 923.77 400.138 924.832 408.738C917.425 394.251 913.005 378.073 912.01 361.643C912.103 363.153 917.983 368.354 919.177 369.459C920.266 370.466 920.744 371.655 922.35 371.487C923.425 371.375 923.704 369.459 924.845 369.515C928.694 369.725 929.822 382.827 930.539 385.707C933.977 399.565 938.609 413.114 944.37 426.104Z" fill="#19807A"/>
<path d="M947.025 667.801C933.938 656.755 933.725 634.13 920.16 623.741C919.364 626.957 918.567 630.159 917.784 633.375C914.001 631.977 912.103 627.684 909.94 624.132C907.776 620.581 903.861 617.127 900.158 618.721C898.14 619.588 896.919 621.685 895.671 623.573C893.574 626.719 891.065 629.558 888.225 631.977C887.747 632.396 887.19 632.816 886.566 632.774C885.584 632.732 885 631.641 884.601 630.704C882.093 624.776 879.584 618.861 877.089 612.932C872.244 617.239 866.882 620.874 861.174 623.755C859.86 624.412 858.307 625.027 857.02 624.328C856.117 623.839 855.599 622.818 855.188 621.839C852.308 614.987 851.83 607.031 853.887 599.844C854.153 598.907 854.498 597.942 855.215 597.327C857.856 595.062 860.882 599.368 863.298 601.899C867.798 606.598 875.828 605.087 880.407 600.459C884.973 595.845 886.937 589.119 888.597 582.673C890.269 576.24 891.941 569.487 896.176 564.523C897.622 575.807 899.082 587.105 900.529 598.39C900.954 601.648 902.64 605.926 905.692 605.227C905.533 601.172 909.767 597.649 913.471 598.739C916.523 599.634 918.408 602.78 919.988 605.689C921.023 607.604 922.297 610.303 924.182 611.436C927.009 613.128 929.067 611.03 931.19 611.841C934.243 612.988 932.265 610.639 934.708 614.232C936.088 616.288 936.088 622.384 936.539 624.831C939.26 639.346 942.764 653.692 947.025 667.801Z" fill="#127370"/>
<path d="M803.331 666.457C812.94 653.635 819.311 638.156 821.634 622.005C813.909 629.989 806.808 638.659 800.424 647.874C799.07 646.881 799.76 644.658 800.583 643.147C809.264 627.067 817.958 610.987 826.638 594.906C830.434 601.436 824.714 610.665 828.271 617.363C832.983 610.679 837.35 603.716 841.239 596.458C844.637 608.847 839.925 619.306 834.43 630.255C826.651 645.734 813.139 653.355 803.331 666.457Z" fill="#127370"/>
<path d="M987.84 650.255C984.866 642.215 982.318 633.993 980.194 625.659C977.911 616.71 975.734 606.936 968.912 601.091C971.009 602.895 966.749 610.795 966.589 612.766C966.204 617.199 967.346 619.744 969.602 624.135C974.487 633.671 980.632 642.494 987.84 650.255Z" fill="#127370"/>
<path d="M770.451 584.421C755.585 593.747 740.122 602.025 724.207 609.157C747.661 583.791 768.009 555.238 784.587 524.434C779.875 541.717 775.163 559 770.451 576.269C777.632 569.459 785.343 562.286 793.692 557.14C788.024 575.234 780.645 595.118 767.756 609.003C767.916 605.787 768.194 585.847 770.451 584.421Z" fill="#127370"/>
<path d="M783.061 832.674C785.066 817.684 787.07 802.708 789.087 787.718C785.251 793.228 781.402 798.751 777.566 804.26C786.844 775.469 797.702 747.238 810.059 719.761C805.413 731.912 803.396 745.182 804.219 758.256C807.63 756.998 810.63 754.537 812.634 751.363C797.662 775.148 796.295 807.295 783.061 832.674Z" fill="#096969"/>
<path d="M921.487 763.261C926.358 772.364 930.048 782.18 932.397 792.346C927.951 786.11 922.429 780.74 916.191 776.573C915.474 776.098 914.545 775.636 913.855 776.154C913.417 776.489 913.271 777.104 913.204 777.678C912.912 780.167 913.39 782.698 913.218 785.187C913.032 787.69 911.904 790.402 909.634 791.199C906.077 782.11 903.82 772.476 902.958 762.688C905.426 763.303 907.484 765.037 909.74 766.282C911.997 767.526 914.864 768.225 916.987 766.757C919.111 765.289 920.611 761.807 923.04 762.576" fill="#096969"/>
</g>
<g opacity="0.3">
<path d="M-459.655 132.561C-434.329 126.433 -365.639 109.814 -315.93 151.169C-247.308 208.242 -283.881 242.934 -305.367 248.133L-306.72 248.46C-328.206 253.658 -376.611 239.552 -341.649 157.391C-316.317 97.8817 -247.626 81.2627 -222.326 75.1415L-218.905 74.3139C-193.579 68.1867 -124.888 51.5677 -75.1798 92.9222C-6.55777 149.995 -43.1304 184.688 -64.6163 189.886L-65.97 190.213C-87.4559 195.412 -135.861 181.305 -100.899 99.1446C-75.5669 39.6349 -6.87608 23.016 18.4246 16.8948L21.5502 16.1386C46.8755 10.0114 115.566 -6.60758 165.275 34.7469C233.897 91.8201 197.324 126.512 175.839 131.71L174.485 132.038C152.999 137.236 104.594 123.13 139.556 40.9693C164.888 -18.5404 233.579 -35.1593 258.879 -41.2805L262.3 -42.1082C287.626 -48.2353 356.317 -64.8543 406.025 -23.4999C474.647 33.5734 438.075 68.2655 416.589 73.4637L415.235 73.7912C393.749 78.9895 345.344 64.8828 380.306 -17.2775C405.638 -76.7871 474.329 -93.4061 499.63 -99.5273" stroke="white" stroke-width="2" stroke-miterlimit="10"/>
<path d="M174.035 132.224L169.425 169.057" stroke="white" stroke-width="2" stroke-miterlimit="10"/>
<path d="M194.337 197.94C192.383 213.444 178.217 224.453 162.712 222.499C147.182 220.551 136.199 206.378 138.153 190.873C140.101 175.344 154.243 164.341 169.772 166.29C185.283 168.268 196.286 182.41 194.337 197.94Z" fill="#FF5287"/>
<path d="M169.778 166.315L162.718 222.524C147.188 220.576 136.204 206.403 138.159 190.899C140.107 175.369 154.248 164.366 169.778 166.315Z" fill="#FF2E60"/>
<path d="M183.178 158.383L181.654 170.605L157.204 167.533L158.727 155.311C159.087 152.488 161.669 150.457 164.516 150.81L178.702 152.588C181.525 152.947 183.538 155.561 183.178 158.383Z" fill="white"/>
<path d="M169.426 169.057L157.204 167.533L158.727 155.311C159.087 152.488 161.669 150.457 164.516 150.81L171.609 151.699L169.844 165.83L169.426 169.057Z" fill="#8AF3FF"/>
<path d="M176.872 178.301C183.141 182.568 187.12 189.864 186.825 198.012" stroke="white" stroke-width="2" stroke-miterlimit="10"/>
<path d="M415.727 72.9171L432.752 105.922" stroke="white" stroke-width="2" stroke-miterlimit="10"/>
<path d="M469.645 115.624C476.811 129.521 471.356 146.602 457.458 153.768C443.561 160.934 426.48 155.48 419.314 141.582C412.148 127.685 417.578 110.609 431.5 103.437C445.397 96.2714 462.479 101.726 469.645 115.624Z" fill="#00AB91"/>
<path d="M431.475 103.444L457.434 153.775C443.536 160.941 426.455 155.486 419.289 141.589C412.123 127.691 417.578 110.61 431.475 103.444Z" fill="#008974"/>
<path d="M438.062 89.3194L443.709 100.276L421.796 111.569L416.149 100.613C414.835 98.091 415.824 94.9602 418.37 93.6407L431.059 87.0797C433.636 85.7789 436.767 86.7669 438.062 89.3194Z" fill="white"/>
<path d="M432.776 105.917L421.82 111.564L416.173 100.608C414.859 98.0857 415.847 94.9549 418.394 93.6354L424.738 90.3549L431.263 103.001L432.776 105.917Z" fill="#8AF3FF"/>
<path d="M444.125 109.32C451.704 109.31 459.125 113.063 463.471 119.932" stroke="white" stroke-width="2" stroke-miterlimit="10"/>
<path d="M302.7 -18.0155L301.671 -5.57432L276.771 -7.59994L277.799 -20.0411C278.042 -22.9135 280.564 -25.0869 283.461 -24.8499L297.891 -23.6777C300.763 -23.4348 302.912 -20.9065 302.7 -18.0155Z" fill="white"/>
<path d="M317.189 88.3936C315.578 108.01 298.394 122.588 278.759 121.008C278.385 120.968 278.01 120.929 277.636 120.889C259.239 118.827 245.353 102.673 246.034 84.1677C246.446 73.5951 251.369 64.328 258.829 58.1203C261.493 55.8866 261.817 51.9523 259.54 49.3249C253.501 42.3451 250.182 33.04 250.994 23.1521C252.605 3.53588 269.808 -11.0731 289.424 -9.4623C289.798 -9.42261 290.173 -9.38294 290.547 -9.34324C308.925 -7.25052 322.836 8.89701 322.124 27.3839C321.718 37.9811 316.79 47.2236 309.33 53.4313C306.641 55.6709 306.341 59.5992 308.618 62.2267C314.676 69.1759 318.02 78.4751 317.189 88.3936Z" fill="#FFB600"/>
<path d="M289.448 -9.46826L278.759 121.008C278.385 120.968 278.01 120.929 277.636 120.889C259.239 118.827 245.353 102.673 246.034 84.1677C246.446 73.5951 251.369 64.328 258.829 58.1203C261.493 55.8866 261.817 51.9523 259.54 49.3249C253.501 42.3451 250.182 33.04 250.994 23.1521C252.629 3.52992 269.832 -11.0791 289.448 -9.46826Z" fill="#FC8035"/>
<path d="M309.62 32.2329C311.021 23.2707 307.93 13.8322 300.596 7.42603" stroke="white" stroke-width="2" stroke-miterlimit="10"/>
<path d="M19.0878 15.2229L29.7781 58.332" stroke="white" stroke-width="2" stroke-miterlimit="10"/>
<path d="M37.8111 38.8809L40.8205 50.9965L16.5892 57.0153L13.5798 44.8997C12.8764 42.0999 14.5809 39.2386 17.4112 38.5539L31.4712 35.0741C34.265 34.3461 37.1263 36.0506 37.8111 38.8809Z" fill="white"/>
<path d="M28.699 53.9815L16.5834 56.9909L13.574 44.8753C12.8706 42.0755 14.5751 39.2142 17.4054 38.5294L24.4324 36.7773L27.9003 50.788L28.699 53.9815Z" fill="#8AF3FF"/>
<path d="M85.5246 135.088C90.2496 154.188 78.618 173.519 59.5186 178.244C59.1494 178.333 58.7803 178.422 58.4111 178.512C40.3129 182.422 21.9955 171.535 16.7627 153.782C13.7569 143.62 15.4812 133.303 20.5865 125.008C22.3963 122.043 21.4427 118.209 18.4592 116.43C10.5231 111.733 4.40358 103.991 1.98964 94.3364C-2.73544 75.2371 8.89624 55.9058 28.0143 51.1502C28.3834 51.0609 28.7526 50.9716 29.1218 50.8822C47.2013 47.0031 65.5374 57.8595 70.7702 75.6116C73.776 85.7742 72.0576 96.1158 66.9709 104.381C65.1366 107.351 66.0901 111.185 69.0983 112.958C77.0156 117.686 83.1352 125.428 85.5246 135.088Z" fill="#00AB91"/>
<path d="M28.0207 51.1752L59.5191 178.244C59.15 178.334 58.7808 178.423 58.4116 178.512C40.3134 182.422 21.996 171.535 16.7632 153.783C13.7574 143.62 15.4818 133.303 20.5871 125.008C22.3968 122.043 21.4433 118.21 18.4597 116.43C10.5236 111.733 4.40411 103.991 1.99016 94.3368C-2.75357 75.268 8.90273 55.9309 28.0207 51.1752Z" fill="#008974"/>
<path d="M60.4359 84.2602C58.9008 75.331 52.955 67.3386 43.9797 63.6223" stroke="white" stroke-width="2" stroke-miterlimit="10"/>
</g>
<g opacity="0.3">
<path d="M522.674 -105.589C547.698 -98.33 615.573 -78.6402 638.18 -18.059C669.396 65.5584 620.423 77.5063 599.193 71.3475L597.855 70.9595C576.625 64.8007 541.617 28.517 612.766 -25.4313C664.308 -64.5024 732.182 -44.8126 757.182 -37.5603L760.563 -36.5797C785.587 -29.3203 853.461 -9.63054 876.068 50.9506C907.285 134.568 858.312 146.516 837.081 140.357L835.744 139.969C814.513 133.81 779.506 97.5266 850.655 43.5784C902.197 4.50719 970.071 24.197 995.071 31.4493L998.16 32.3453C1023.18 39.6046 1091.06 59.2944 1113.67 119.876C1144.88 203.493 1095.91 215.441 1074.68 209.282L1073.34 208.894C1052.11 202.735 1017.1 166.452 1088.25 112.503C1139.79 73.4321 1207.67 93.122 1232.67 100.374L1236.05 101.355C1261.07 108.614 1328.95 128.304 1351.55 188.885C1382.77 272.503 1333.8 284.451 1312.57 278.292L1311.23 277.904C1290 271.745 1254.99 235.461 1326.14 181.513C1377.68 142.442 1445.56 162.132 1470.56 169.384" stroke="white" stroke-width="2" stroke-miterlimit="10"/>
<path d="M750.657 -39.058L745.143 5.034" stroke="white" stroke-width="2" stroke-miterlimit="10"/>
<path d="M759.623 -10.2498L758.06 2.13674L733.28 -0.965129L734.843 -13.3517C735.203 -16.2267 737.823 -18.2613 740.698 -17.9019L755.073 -16.1047C757.948 -15.7452 759.983 -13.1249 759.623 -10.2498Z" fill="white"/>
<path d="M745.698 0.580693L733.311 -0.982394L734.874 -13.369C735.234 -16.244 737.854 -18.2786 740.729 -17.9192L747.904 -17.0241L746.121 -2.69754L745.698 0.580693Z" fill="#8AF3FF"/>
<path d="M769.57 96.7C767.118 116.238 749.32 130.058 729.775 127.631C729.397 127.574 729.042 127.524 728.663 127.466C710.376 124.613 697.198 107.872 698.675 89.4221C699.524 78.8587 704.858 69.8335 712.576 63.9517C715.353 61.8308 715.824 57.9336 713.665 55.1979C707.931 47.9714 705.002 38.5266 706.249 28.6848C708.7 9.14709 726.505 -4.69729 746.043 -2.24615C746.422 -2.18897 746.776 -2.13884 747.155 -2.08165C765.436 0.795695 778.62 17.5132 777.119 35.9556C776.27 46.519 770.936 55.5443 763.243 61.4331C760.465 63.554 759.994 67.4512 762.153 70.1868C767.87 77.382 770.799 86.8268 769.57 96.7Z" fill="#FF5287"/>
<path d="M746.05 -2.27018L729.776 127.631C729.397 127.574 729.042 127.524 728.663 127.467C710.376 124.614 697.198 107.872 698.675 89.4224C699.524 78.859 704.858 69.8338 712.576 63.952C715.353 61.8311 715.824 57.9339 713.665 55.1982C707.931 47.9716 705.002 38.5269 706.249 28.6851C708.707 9.12305 726.512 -4.72131 746.05 -2.27018Z" fill="#FF2E60"/>
<path d="M764.411 40.2319C766.199 31.3384 763.522 21.7555 756.446 15.0626" stroke="white" stroke-width="2" stroke-miterlimit="10"/>
<path d="M833.772 140.952L832.157 178.055" stroke="white" stroke-width="2" stroke-miterlimit="10"/>
<path d="M859.36 204.797C858.678 220.419 845.46 232.535 829.839 231.853C814.217 231.171 802.1 217.953 802.783 202.332C803.465 186.711 816.658 174.587 832.304 175.276C847.925 175.958 860.042 189.176 859.36 204.797Z" fill="#FFB600"/>
<path d="M832.28 175.269L829.815 231.847C814.193 231.164 802.076 217.947 802.759 202.325C803.441 186.704 816.659 174.587 832.28 175.269Z" fill="#FC8035"/>
<path d="M845.012 166.281L844.472 178.595L819.844 177.515L820.384 165.201C820.496 162.359 822.909 160.133 825.774 160.252L840.046 160.859C842.929 161.01 845.156 163.423 845.012 166.281Z" fill="white"/>
<path d="M832.189 178.037L819.875 177.497L820.415 165.183C820.527 162.342 822.94 160.115 825.805 160.234L832.941 160.538L832.317 174.779L832.189 178.037Z" fill="#8AF3FF"/>
<path d="M840.341 186.652C846.924 190.407 851.501 197.351 851.861 205.47" stroke="white" stroke-width="2" stroke-miterlimit="10"/>
<path d="M591.559 69.2119L569.242 98.8848" stroke="white" stroke-width="2" stroke-miterlimit="10"/>
<path d="M576.545 136.332C567.148 148.819 549.385 151.339 536.898 141.942C524.387 132.539 521.891 114.783 531.288 102.296C540.691 89.7844 558.43 87.2579 570.941 96.6614C583.422 106.082 585.948 123.821 576.545 136.332Z" fill="#8AF3FF"/>
<path opacity="0.5" d="M570.91 96.6793L536.867 141.96C524.356 132.557 521.86 114.801 531.257 102.314C540.66 89.8023 558.399 87.2758 570.91 96.6793Z" fill="#00AB91"/>
<path d="M586.504 96.4563L579.111 106.308L559.415 91.4981L566.808 81.6464C568.521 79.3751 571.772 78.8944 574.067 80.6149L585.497 89.2036C587.744 90.9101 588.218 94.185 586.504 96.4563Z" fill="white"/>
<path d="M569.243 98.8841L559.391 91.4913L566.784 81.6396C568.497 79.3683 571.748 78.8875 574.044 80.6081L579.758 84.9025L571.208 96.2903L569.243 98.8841Z" fill="#8AF3FF"/>
<path d="M571.115 110.606C574.437 117.423 574.267 125.732 569.965 132.657" stroke="white" stroke-width="2" stroke-miterlimit="10"/>
<path d="M1000.98 60.1604L997.574 72.1709L973.553 65.3608L976.958 53.3504C977.738 50.5709 980.638 48.934 983.435 49.7453L997.366 53.7076C1000.15 54.4632 1001.79 57.3637 1000.98 60.1604Z" fill="white"/>
<path d="M985.57 68.7418L973.56 65.3367L976.965 53.3263C977.745 50.5468 980.645 48.9099 983.442 49.7212L990.411 51.6902L986.463 65.5732L985.57 68.7418Z" fill="#8AF3FF"/>
<path d="M994.612 167.361C989.228 186.285 969.531 197.287 950.607 191.902C950.242 191.797 949.878 191.691 949.513 191.585C931.863 185.99 921.371 167.444 925.645 149.437C928.083 139.123 934.704 131.025 943.255 126.36C946.298 124.686 947.374 120.885 945.668 117.859C941.113 109.841 939.646 100.082 942.346 90.5033C947.73 71.5792 967.427 60.5772 986.382 65.9442C986.747 66.05 987.112 66.1558 987.476 66.2616C1005.1 71.8737 1015.62 90.403 1011.34 108.41C1008.91 118.723 1002.28 126.846 993.759 131.493C990.691 133.161 989.615 136.962 991.345 139.995C995.869 148.03 997.336 157.789 994.612 167.361Z" fill="#00AB91"/>
<path d="M986.375 65.9691L950.607 191.903C950.243 191.797 949.878 191.691 949.513 191.586C931.863 185.991 921.371 167.444 925.645 149.437C928.084 139.124 934.704 131.025 943.255 126.361C946.298 124.686 947.375 120.886 945.669 117.86C941.113 109.841 939.647 100.082 942.346 90.5038C947.699 71.597 967.42 60.6021 986.375 65.9691Z" fill="#008974"/>
</g>
</g>
<defs>
<clipPath id="clip0_1_202">
<rect width="980" height="810" fill="white"/>
</clipPath>
</defs>
</svg>
