<svg width="157" height="158" viewBox="0 0 157 158" fill="none" xmlns="http://www.w3.org/2000/svg">
<path d="M142.597 122.299C154.224 93.5552 142.146 56.124 111.912 33.1466C81.677 10.1692 43.2932 9.26097 19.935 29.0897L18.6485 28.1137L10.8636 38.9239C-10.3621 68.3909 0.467469 113.583 35.0506 139.863C69.6337 166.142 114.873 163.556 136.099 134.085L143.884 123.275L142.597 122.299Z" fill="#C6640C"/>
<path d="M141.123 90.9979L82.3011 124.714L61.873 154.01C90.3565 163.264 120.071 156.34 136.099 134.089L143.884 123.279L142.597 122.303C144.549 117.477 145.832 112.405 146.477 107.197L141.123 90.9979Z" fill="#A3490A"/>
<path d="M143.883 123.275C122.657 152.746 77.4181 155.332 42.8349 129.052C8.25182 102.773 -2.57426 57.5808 18.6479 28.1138C39.8701 -1.35324 85.1128 -3.94267 119.696 22.3365C154.279 48.6157 165.109 93.8082 143.883 123.275Z" fill="url(#paint0_radial_1_971)"/>
<path d="M143.883 123.275C122.657 152.746 77.4181 155.332 42.8349 129.052C8.25182 102.773 -2.57426 57.5808 18.6479 28.1138C39.8701 -1.35324 85.1128 -3.94267 119.696 22.3365C154.279 48.6157 165.109 93.8082 143.883 123.275Z" fill="url(#paint1_radial_1_971)"/>
<path opacity="0.7" d="M43.5842 53.6129L55.7176 5.31805C47.9604 6.7321 40.654 9.48539 34.173 13.553L20.7947 105.281C23.8809 110.096 27.4908 114.709 31.6069 119.022L43.5842 53.6129Z" fill="#FCFFAC"/>
<path d="M83.9343 34.2328L88.5186 33.5917L93.3109 8.33476C91.2511 7.65445 89.1844 7.05606 87.1142 6.54315L83.9343 34.2328Z" fill="#FCFFAC"/>
<path opacity="0.7" d="M123.992 76.8466L116.017 143.684C119.138 142.623 122.148 141.316 125.019 139.773L134.805 36.6906C132.419 33.8518 129.829 31.1199 127.041 28.5198L123.992 76.8466Z" fill="#FCFFAC"/>
<path d="M127.663 114.032C143.487 92.0605 135.413 58.3667 109.63 38.775C83.8466 19.1834 50.1168 21.1128 34.2925 43.0846C18.4681 65.0564 26.5415 98.7502 52.3249 118.342C78.1084 137.934 111.838 136.004 127.663 114.032Z" fill="#FCFFAC"/>
<path d="M128.188 111.346C144.101 89.252 135.982 55.3712 110.056 35.6708C84.1289 15.9703 50.212 17.9103 34.2999 40.0039C18.3878 62.0974 26.5062 95.9782 52.4328 115.679C78.3594 135.379 112.276 133.439 128.188 111.346Z" fill="#FBAA12"/>
<path opacity="0.3" d="M136.247 81.9009C135.557 89.7512 132.956 97.2417 128.292 103.721C112.379 125.815 78.4616 127.752 52.5338 108.052C36.6484 95.9808 27.4487 78.5849 26.3633 61.8407C24.6988 80.7647 34.1274 101.772 52.4506 115.699C78.3784 135.4 112.296 133.462 128.209 111.368C134.374 102.809 136.934 92.4867 136.247 81.9009Z" fill="#EA831C"/>
<path opacity="0.25" d="M30.095 16.3739C24.148 37.2391 33.4517 62.7809 54.6254 78.8697C80.5705 98.5844 114.512 96.6432 130.436 74.535C137.437 64.8147 139.788 52.8149 138.023 40.7439C132.977 34.0049 126.847 27.7646 119.7 22.3364C90.4638 0.121261 53.6163 -1.46731 30.095 16.3739Z" fill="#FFFFEB"/>
<path d="M34.4159 42.4038C50.329 20.3098 84.2464 18.3722 110.174 38.0726C126.105 50.1793 135.311 67.6358 136.352 84.4263C136.078 66.9235 126.767 48.3699 110.081 35.6898C84.1528 15.9893 50.2354 17.9269 34.3223 40.0209C28.188 48.5408 25.6253 58.8096 26.2773 69.3455C26.1247 59.6502 28.7428 50.279 34.4159 42.4038Z" fill="#CF7310"/>
<defs>
<radialGradient id="paint0_radial_1_971" cx="0" cy="0" r="1" gradientUnits="userSpaceOnUse" gradientTransform="translate(81.2668 75.6941) rotate(37.2296) scale(78.6441 65.7357)">
<stop stop-color="#FBC01E"/>
<stop offset="0.4609" stop-color="#FDC822"/>
<stop offset="1" stop-color="#FCE13C"/>
</radialGradient>
<radialGradient id="paint1_radial_1_971" cx="0" cy="0" r="1" gradientUnits="userSpaceOnUse" gradientTransform="translate(81.2668 75.6941) rotate(37.2296) scale(78.6441 65.7357)">
<stop stop-color="#FBC01E"/>
<stop offset="0.4609" stop-color="#FDC822"/>
<stop offset="1" stop-color="#FCE13C"/>
</radialGradient>
</defs>
</svg>
