<svg width="157" height="163" viewBox="0 0 157 163" fill="none" xmlns="http://www.w3.org/2000/svg">
<path d="M156.966 115.302C155.632 142.438 119.488 163.812 76.1157 162.976C32.7429 162.141 -1.29559 139.491 0.0378784 112.356C1.37135 85.1761 37.5153 63.846 80.8179 64.6816C124.191 65.4732 158.229 88.1228 156.966 115.302Z" fill="#00AB91"/>
<path d="M80.8179 64.6364L76.1157 162.975C32.7429 162.14 -1.29559 139.49 0.0378784 112.354C1.37135 85.175 37.5153 63.8008 80.8179 64.6364Z" fill="#008974"/>
<path d="M115.767 48.7167L114.715 70.0909L46.4272 68.8154L47.4799 47.4412C47.6905 42.4715 54.2876 38.5574 62.2885 38.7333L101.871 39.4809C109.802 39.6128 116.048 43.7909 115.767 48.7167Z" fill="white"/>
<path d="M80.6045 69.4751L46.4958 68.8154L47.5485 47.4412C47.7591 42.4715 54.3563 38.5574 62.3571 38.7333L82.1486 39.0851L80.9555 63.8017L80.6045 69.4751Z" fill="#8AF3FF"/>
<path d="M103.557 84.2082C121.944 90.5853 134.858 102.504 136.191 116.621" stroke="white" stroke-width="2" stroke-miterlimit="10"/>
<path d="M85.4789 36.0747C83.8021 37.4357 80.9959 39.1556 80.9959 39.1556C80.9959 39.1556 79.3642 34.6781 78.6037 31.7839C77.7963 28.7112 77.0514 23.9 77.0514 23.9C77.0514 23.9 76.2208 19.5219 76.3235 16.552L76.3253 16.4996C76.413 13.962 76.4709 12.2878 77.2503 9.92637C77.9043 7.94472 78.3378 6.77017 79.5365 5.24186C80.723 3.72913 81.6244 3.13007 83.1849 2.32378C84.9286 1.4228 86.0392 1.07946 87.9179 1.16821C89.5851 1.24697 90.5498 1.57222 92.0613 2.45013C93.9162 3.52741 94.9078 4.50175 96.165 6.52677C97.1471 8.10865 97.6457 9.14759 98.0421 11.0958C98.5119 13.405 98.3337 14.8667 97.9551 17.2093C97.5473 19.7324 96.9559 21.0658 95.9263 23.2951C94.51 26.3618 93.2666 27.7375 91.25 30.2168C89.1785 32.7635 87.9115 34.1003 85.4789 36.0747Z" stroke="white" stroke-width="2"/>
</svg>
